M48
;Layer_Color=9474304
;FILE_FORMAT=2:5
INCH,LZ
;TYPE=PLATED
T1F00S00C0.02800
T2F00S00C0.03150
T3F00S00C0.03200
T4F00S00C0.03500
T5F00S00C0.03543
T6F00S00C0.03800
T7F00S00C0.03937
T8F00S00C0.04724
T9F00S00C0.05118
T10F00S00C0.05400
T11F00S00C0.06299
T12F00S00C0.07500
T13F00S00C0.08500
T14F00S00C0.10000
T15F00S00C0.13000
T16F00S00C0.16000
%
T01
X04932Y02777
X05262Y02973
X05655Y0273
Y02652
X03042Y04329
X03354
X03439Y04666
X0415Y04635
X0428
X0442Y04484
X04408Y04211
X04162Y04047
X04029Y04129
X03939Y04329
X03744Y03705
X04949Y03774
X05382Y03744
Y039
X05148Y042
X0488Y0428
X04953Y04758
X04797Y04797
Y05187
X05273Y05069
X05383Y05024
X03511Y04962
X03736Y04718
T02
X0506926Y0292352
Y0300226
Y03081
X05148
Y0300226
Y0292352
Y0315974
X0506926
X05083Y0555052
Y0562926
Y05708
Y0578674
X0516174
Y05708
Y0562926
Y0555052
T03
X05878Y03691
Y03791
Y03891
Y03991
T04
X05163Y04516
X05263
X05363
X05463
Y04804
X05363
X05263
X05163
T05
X04843Y01646
Y01746
X0618Y0231
Y0250685
X04543Y01746
Y01646
X05207Y04396
X05307
X05407
X05507
X05607
X0614441Y0504559
Y0524244
X04395Y05181
X04295
X04195
X04095
X03995
X03895
X03795
Y04881
X03895
X03995
X04095
X04195
X04295
X04395
T06
X05645Y01468
X05745
X04617Y03906
X04517
X04518Y04104
X04618
X0523Y0528
X0533
T07
X0344872Y0156
X0403928
X03382Y0211436
X03482Y0240964
T08
X05658Y0201709
X05814
X0597
Y0242891
X05814
X05658
X0422591Y0227
X0381409
Y01855
X0422591
T09
X0324248Y0282
X0417752
T10
X03645Y02065
X0364Y02465
X0439
X04395Y02065
T11
X05928Y0156
X06084
X0557Y01804
X05414
X05258
X05102
X0312Y02028
Y0234
X05909Y06368
X06065
T12
X06502Y01867
Y02023
Y02179
Y02335
Y02491
Y02647
Y02803
Y02959
Y03115
X065Y03363
Y03519
Y03675
Y03831
Y03987
Y04143
Y04299
Y04455
Y04611
Y04767
Y04923
Y05079
Y05235
Y05391
Y05547
Y05703
Y05859
Y06015
T13
X05928Y05616
T14
X06282Y01861
Y02017
X05928Y02808
Y0312
X05033Y02437
X0312Y02184
X05928Y03432
Y04368
Y0468
X06204Y04685
X05928Y04992
Y05304
Y05928
X04598Y06297
T15
X0312Y01872
Y02496
X05753Y06367
X06221
T16
X0301Y015
X0681
X05241Y02168
X0459Y05945
X03005Y06495
X0682Y065
M30
