G04 Layer_Physical_Order=1*
G04 Layer_Color=255*
%FSLAX25Y25*%
%MOIN*%
G70*
G01*
G75*
%ADD10O,0.08000X0.13000*%
G04:AMPARAMS|DCode=11|XSize=130mil|YSize=80mil|CornerRadius=10mil|HoleSize=0mil|Usage=FLASHONLY|Rotation=90.000|XOffset=0mil|YOffset=0mil|HoleType=Round|Shape=RoundedRectangle|*
%AMROUNDEDRECTD11*
21,1,0.13000,0.06000,0,0,90.0*
21,1,0.11000,0.08000,0,0,90.0*
1,1,0.02000,0.03000,0.05500*
1,1,0.02000,0.03000,-0.05500*
1,1,0.02000,-0.03000,-0.05500*
1,1,0.02000,-0.03000,0.05500*
%
%ADD11ROUNDEDRECTD11*%
%ADD12R,0.05118X0.05905*%
G04:AMPARAMS|DCode=13|XSize=70.87mil|YSize=47.24mil|CornerRadius=5.91mil|HoleSize=0mil|Usage=FLASHONLY|Rotation=270.000|XOffset=0mil|YOffset=0mil|HoleType=Round|Shape=RoundedRectangle|*
%AMROUNDEDRECTD13*
21,1,0.07087,0.03543,0,0,270.0*
21,1,0.05905,0.04724,0,0,270.0*
1,1,0.01181,-0.01772,-0.02953*
1,1,0.01181,-0.01772,0.02953*
1,1,0.01181,0.01772,0.02953*
1,1,0.01181,0.01772,-0.02953*
%
%ADD13ROUNDEDRECTD13*%
G04:AMPARAMS|DCode=14|XSize=23.62mil|YSize=39.37mil|CornerRadius=2.95mil|HoleSize=0mil|Usage=FLASHONLY|Rotation=270.000|XOffset=0mil|YOffset=0mil|HoleType=Round|Shape=RoundedRectangle|*
%AMROUNDEDRECTD14*
21,1,0.02362,0.03347,0,0,270.0*
21,1,0.01772,0.03937,0,0,270.0*
1,1,0.00591,-0.01673,-0.00886*
1,1,0.00591,-0.01673,0.00886*
1,1,0.00591,0.01673,0.00886*
1,1,0.00591,0.01673,-0.00886*
%
%ADD14ROUNDEDRECTD14*%
%ADD15R,0.05905X0.05118*%
%ADD16R,0.04724X0.04724*%
%ADD17R,0.04900X0.03900*%
%ADD18R,0.03500X0.03100*%
%ADD19R,0.03900X0.04900*%
%ADD20R,0.03100X0.03500*%
G04:AMPARAMS|DCode=21|XSize=70.87mil|YSize=47.24mil|CornerRadius=5.91mil|HoleSize=0mil|Usage=FLASHONLY|Rotation=0.000|XOffset=0mil|YOffset=0mil|HoleType=Round|Shape=RoundedRectangle|*
%AMROUNDEDRECTD21*
21,1,0.07087,0.03543,0,0,0.0*
21,1,0.05905,0.04724,0,0,0.0*
1,1,0.01181,0.02953,-0.01772*
1,1,0.01181,-0.02953,-0.01772*
1,1,0.01181,-0.02953,0.01772*
1,1,0.01181,0.02953,0.01772*
%
%ADD21ROUNDEDRECTD21*%
%ADD22C,0.10000*%
%ADD23C,0.02000*%
%ADD24C,0.02500*%
%ADD25C,0.01200*%
%ADD26C,0.05000*%
%ADD27C,0.01000*%
%ADD28C,0.06000*%
G04:AMPARAMS|DCode=29|XSize=60mil|YSize=60mil|CornerRadius=7.5mil|HoleSize=0mil|Usage=FLASHONLY|Rotation=90.000|XOffset=0mil|YOffset=0mil|HoleType=Round|Shape=RoundedRectangle|*
%AMROUNDEDRECTD29*
21,1,0.06000,0.04500,0,0,90.0*
21,1,0.04500,0.06000,0,0,90.0*
1,1,0.01500,0.02250,0.02250*
1,1,0.01500,0.02250,-0.02250*
1,1,0.01500,-0.02250,-0.02250*
1,1,0.01500,-0.02250,0.02250*
%
%ADD29ROUNDEDRECTD29*%
%ADD30O,0.08000X0.06000*%
G04:AMPARAMS|DCode=31|XSize=60mil|YSize=80mil|CornerRadius=7.5mil|HoleSize=0mil|Usage=FLASHONLY|Rotation=90.000|XOffset=0mil|YOffset=0mil|HoleType=Round|Shape=RoundedRectangle|*
%AMROUNDEDRECTD31*
21,1,0.06000,0.06500,0,0,90.0*
21,1,0.04500,0.08000,0,0,90.0*
1,1,0.01500,0.03250,0.02250*
1,1,0.01500,0.03250,-0.02250*
1,1,0.01500,-0.03250,-0.02250*
1,1,0.01500,-0.03250,0.02250*
%
%ADD31ROUNDEDRECTD31*%
%ADD32C,0.07874*%
%ADD33O,0.15748X0.11811*%
%ADD34R,0.15748X0.11811*%
%ADD35R,0.05118X0.05118*%
%ADD36C,0.05118*%
%ADD37C,0.11811*%
%ADD38R,0.07874X0.07874*%
%ADD39R,0.07874X0.07874*%
%ADD40C,0.10236*%
%ADD41R,0.05905X0.05905*%
%ADD42C,0.05905*%
%ADD43R,0.10000X0.10000*%
%ADD44C,0.10000*%
%ADD45C,0.12000*%
%ADD46C,0.05905*%
%ADD47R,0.05905X0.05905*%
%ADD48C,0.05000*%
%ADD49C,0.16000*%
%ADD50C,0.13000*%
%ADD51C,0.30000*%
%ADD52C,0.18000*%
G36*
X662000Y359500D02*
Y345000D01*
X640000Y345000D01*
Y282500D01*
Y271600D01*
X661000D01*
Y243000D01*
X622500D01*
X603971Y250741D01*
X605570Y250200D01*
X577670Y259800D01*
Y360000D01*
X661500D01*
X662000Y359500D01*
D02*
G37*
G36*
X695000Y178600D02*
X668800Y178600D01*
Y177750D01*
X616000Y177750D01*
X616000Y210650D01*
X667500Y210650D01*
X667500Y407500D01*
X566900D01*
Y512500D01*
X677500D01*
Y512500D01*
X695000Y512500D01*
X695000Y178600D01*
D02*
G37*
G36*
X694000Y610252D02*
X694000Y516252D01*
X567300D01*
Y609264D01*
X693848Y610404D01*
X694000Y610252D01*
D02*
G37*
D10*
X533000Y525500D02*
D03*
X564500Y149300D02*
D03*
X461700Y388100D02*
D03*
X461800Y407900D02*
D03*
D11*
X523000Y525500D02*
D03*
X574500Y149300D02*
D03*
X451700Y388100D02*
D03*
X451800Y407900D02*
D03*
D12*
X487660Y487500D02*
D03*
X495140D02*
D03*
X535440Y601200D02*
D03*
X527960D02*
D03*
X365220Y423400D02*
D03*
X372700D02*
D03*
X401740D02*
D03*
X394260D02*
D03*
X306000D02*
D03*
X313480D02*
D03*
X342900D02*
D03*
X335420D02*
D03*
X496760Y427400D02*
D03*
X504240D02*
D03*
X464060Y449400D02*
D03*
X471540D02*
D03*
X464160Y463000D02*
D03*
X471640D02*
D03*
X487660Y529000D02*
D03*
X495140D02*
D03*
X440700Y534300D02*
D03*
X433220D02*
D03*
X389360Y465200D02*
D03*
X396840D02*
D03*
D13*
X460200Y478482D02*
D03*
Y488718D02*
D03*
Y521382D02*
D03*
Y531618D02*
D03*
D14*
X558328Y390000D02*
D03*
X549272Y386260D02*
D03*
Y393740D02*
D03*
X558328Y374400D02*
D03*
X549272Y370660D02*
D03*
Y378140D02*
D03*
X422572Y412840D02*
D03*
Y405360D02*
D03*
X431628Y409100D02*
D03*
D15*
X471900Y530240D02*
D03*
Y522760D02*
D03*
Y487340D02*
D03*
Y479860D02*
D03*
X422600Y421960D02*
D03*
Y429440D02*
D03*
X462500D02*
D03*
Y421960D02*
D03*
X449000D02*
D03*
Y429440D02*
D03*
D16*
X402134Y405000D02*
D03*
X393866D02*
D03*
X313768D02*
D03*
X305500D02*
D03*
X343223D02*
D03*
X334955D02*
D03*
X363866D02*
D03*
X372134D02*
D03*
D17*
X358800Y506900D02*
D03*
Y499300D02*
D03*
D18*
X486900Y511750D02*
D03*
Y504250D02*
D03*
X495100Y508000D02*
D03*
D19*
X552800Y491600D02*
D03*
X560400D02*
D03*
D20*
X553850Y510700D02*
D03*
X550100Y518900D02*
D03*
X557600D02*
D03*
D21*
X560918Y501200D02*
D03*
X550682D02*
D03*
D22*
X650000Y311400D02*
X670400D01*
X650100Y280400D02*
X672700D01*
D23*
X471900Y479700D02*
X479700D01*
X460200Y479860D02*
X471740D01*
X461800Y421460D02*
X462500Y422160D01*
X456740D02*
X462500D01*
X432328Y385828D02*
Y409100D01*
X579000Y374400D02*
X584000Y379400D01*
X558328Y374400D02*
X579000D01*
X641300Y390000D02*
X650000Y398700D01*
X558328Y390000D02*
X641300D01*
X506926Y292352D02*
X512578Y286700D01*
X519800D01*
X526200Y293100D01*
Y297300D01*
X596100Y626400D02*
X606500Y636800D01*
X584743Y626400D02*
X596100D01*
X580843Y622500D02*
X584743Y626400D01*
X541900Y622500D02*
X580843D01*
X540400Y621000D02*
X541900Y622500D01*
X540400Y595200D02*
Y621000D01*
X539900Y625500D02*
X579600D01*
X499700Y585300D02*
X539900Y625500D01*
X499700Y560800D02*
Y585300D01*
X527960Y592400D02*
Y601200D01*
Y588660D02*
Y592400D01*
X528460Y592900D01*
X538100D01*
X540400Y595200D01*
X535150Y601490D02*
X535440Y601200D01*
X535150Y601490D02*
Y618950D01*
X518222Y557100D02*
X523900D01*
Y584600D02*
X527960Y588660D01*
X523900Y557100D02*
Y584600D01*
X499700Y560800D02*
X505448Y555052D01*
X508300D01*
X516174D02*
X518222Y557100D01*
X461260Y465860D02*
X464500Y469100D01*
X516400Y466400D02*
X526300Y456500D01*
X492200Y466400D02*
X516400D01*
X489500Y469100D02*
X492200Y466400D01*
X313480Y405287D02*
Y423500D01*
X402534Y405000D02*
Y412534D01*
X341740Y405106D02*
Y423500D01*
X422840Y413272D02*
Y423900D01*
Y413272D02*
X423272Y412840D01*
X536300Y445200D02*
Y451600D01*
X530700Y439600D02*
X536300Y445200D01*
X542494Y257400D02*
X586719D01*
X393900Y423860D02*
Y432900D01*
X313480Y405287D02*
X313768Y405000D01*
X341634D02*
X341740Y405106D01*
X528500Y386500D02*
X536000Y379000D01*
X611400Y383100D02*
X650000D01*
X335000Y383000D02*
Y403366D01*
X333366Y405000D02*
X335000Y403366D01*
X536000Y379000D02*
X545300D01*
X546000Y378300D01*
X549113D01*
X549272Y378140D01*
X538200Y390000D02*
X542100Y386100D01*
X549113D01*
X549272Y386260D01*
X538972Y397028D02*
X542260Y393740D01*
X549272D01*
X538200Y374400D02*
X542100Y370500D01*
X549113D01*
X549272Y370660D01*
X428000Y463500D02*
X428600Y464100D01*
X461260D01*
X472480Y450500D02*
X515800D01*
X516300Y451000D01*
X526300Y451600D02*
Y456500D01*
X504700Y507336D02*
Y536600D01*
X515557Y461300D02*
X521253Y455604D01*
X398540Y463500D02*
X415000D01*
X396840Y465200D02*
X398540Y463500D01*
X502500Y538800D02*
X504700Y536600D01*
X452400Y530400D02*
X453618Y531618D01*
X452400Y491400D02*
Y530400D01*
X453618Y531618D02*
X460118D01*
X471900Y530240D02*
X486420D01*
X460500Y530400D02*
X473500D01*
X486900Y511750D02*
Y526150D01*
Y488260D02*
Y504250D01*
X452100Y538800D02*
X502500D01*
X429000Y495300D02*
X448500Y514800D01*
Y535200D01*
X452100Y538800D01*
X433220Y526820D02*
Y534300D01*
X429500Y523100D02*
X433220Y526820D01*
X429500Y518100D02*
Y523100D01*
X429000Y488600D02*
Y495300D01*
Y488600D02*
X429500Y488100D01*
X399500D02*
X401700Y485900D01*
Y483600D02*
Y485900D01*
X455400Y486257D02*
Y486600D01*
X457518Y488718D01*
X460200D01*
X335000Y383000D02*
X347300Y370700D01*
X347100Y370500D02*
X347300Y370700D01*
X347100Y370500D02*
X374400D01*
X472060Y487500D02*
X487660D01*
X461418D02*
X472060D01*
X461260Y464100D02*
Y465860D01*
X584000Y379400D02*
X607700D01*
X611400Y383100D01*
X521795Y278100D02*
X542494Y257400D01*
X579600Y625500D02*
X590900Y636800D01*
X471100Y451000D02*
Y453200D01*
X468700Y455600D02*
X471100Y453200D01*
X471740Y464100D02*
X473640Y462200D01*
X477700D01*
X478600Y461300D01*
X515557D01*
X415000Y463500D02*
X422900Y455600D01*
X468700D01*
X439500Y518100D02*
Y533100D01*
X440700Y534300D01*
X402534Y412534D02*
X402900Y412900D01*
X393866Y405300D02*
Y415434D01*
X395932Y417500D01*
X400500D01*
X401740Y418740D01*
X372134Y399666D02*
Y405000D01*
X371268Y398800D02*
X372134Y399666D01*
X357800Y398800D02*
X371268D01*
X352300Y404300D02*
X357800Y398800D01*
X352300Y404300D02*
Y458200D01*
X343900Y466600D02*
X352300Y458200D01*
X359200D01*
X366200Y465200D01*
X389360D01*
X372700Y414000D02*
Y423400D01*
X366400Y414000D02*
X372700D01*
X364200Y411800D02*
X366400Y414000D01*
X364200Y405334D02*
Y411800D01*
X363866Y405000D02*
X364200Y405334D01*
X401740Y418740D02*
Y423400D01*
Y423500D01*
X444943Y475800D02*
X455400Y486257D01*
X379500Y488100D02*
X391800Y475800D01*
X444943D01*
X368600Y432900D02*
X393900D01*
X365220Y423400D02*
Y429520D01*
X368600Y432900D01*
X401700Y483600D02*
X404400Y480900D01*
X441900D01*
X452400Y491400D01*
X521394Y277700D02*
X521795Y278100D01*
X493200Y277700D02*
X521394D01*
X505136Y506900D02*
X527300D01*
X504700Y507336D02*
X505136Y506900D01*
X561200Y491400D02*
X569000D01*
X563100Y501000D02*
X567400D01*
X553850Y508750D02*
Y510700D01*
X550682Y501200D02*
Y505582D01*
Y493718D02*
Y501200D01*
Y493718D02*
X552800Y491600D01*
X546300Y480400D02*
Y484700D01*
X552800Y491200D01*
Y491600D01*
X550682Y505582D02*
X553850Y508750D01*
X389500Y488100D02*
Y498100D01*
X409500Y488100D02*
Y496600D01*
X429500Y516600D01*
X389500Y498100D02*
X409500Y518100D01*
X429500Y516600D02*
Y518100D01*
X465250Y447350D02*
X468153Y444447D01*
X471053D01*
X478700Y436800D01*
X432328Y385828D02*
X434255Y383900D01*
X447500D01*
X451700Y388100D01*
X577000Y369100D02*
X587800D01*
X569000Y361100D02*
X577000Y369100D01*
X587800D02*
X648400D01*
X650000Y367500D01*
X422600Y431040D02*
Y440200D01*
X534500Y361100D02*
X569000D01*
X521100Y374500D02*
X534500Y361100D01*
X521100Y374500D02*
Y420500D01*
X508100Y433500D02*
X521100Y420500D01*
X488000Y428000D02*
X496160D01*
X496760Y427400D01*
X464500Y469100D02*
X489500D01*
X528500Y386500D02*
Y417343D01*
X478700Y436800D02*
X509043D01*
X528500Y417343D01*
X538972Y397028D02*
Y412128D01*
X514500Y436600D02*
X538972Y412128D01*
X514500Y436600D02*
Y442196D01*
X520700Y439600D02*
X526200Y445100D01*
X526300D02*
Y451600D01*
X430800Y448400D02*
X442000D01*
X422600Y440200D02*
X430800Y448400D01*
X470400Y433500D02*
X508100D01*
X466100Y437800D02*
X470400Y433500D01*
X446800Y437800D02*
X466100D01*
X440200Y402500D02*
X444700Y398000D01*
X459600D01*
X461700Y395900D01*
Y388100D02*
Y390600D01*
Y395900D01*
X440200Y408700D02*
X451000D01*
X451800Y407900D01*
X440200Y402500D02*
Y408700D01*
X450600Y429700D02*
X452800D01*
X455800Y426700D01*
X435600Y413300D02*
X440200Y408700D01*
X435600Y413300D02*
Y426600D01*
X446800Y437800D01*
X440800Y421100D02*
X448140D01*
X449000Y421960D01*
X455800Y423100D02*
Y426700D01*
Y423100D02*
X456740Y422160D01*
X461800Y407900D02*
Y410400D01*
Y421460D01*
X466740Y428000D02*
X488000D01*
X464800Y429940D02*
X466740Y428000D01*
X461000Y429940D02*
X464800D01*
D24*
X355400Y499200D02*
X358800D01*
X541000Y521500D02*
X542700Y523200D01*
X541000Y504800D02*
Y521500D01*
X537100Y500900D02*
X541000Y504800D01*
X484000Y174600D02*
X485550Y176150D01*
X378300Y516500D02*
X379700Y517900D01*
X378300Y503100D02*
Y516500D01*
X495300Y487000D02*
X500400D01*
Y479500D02*
Y487000D01*
X495100Y508000D02*
X500400D01*
X497000Y529000D02*
X500400Y525600D01*
X297000Y411000D02*
Y445000D01*
Y411000D02*
X303000Y405000D01*
X305500D01*
X500400Y508000D02*
Y525600D01*
Y487000D02*
Y508000D01*
X495300Y475800D02*
X496500D01*
X500200Y479500D01*
X500400D01*
X509860Y420000D02*
X514800D01*
X351100Y496200D02*
X352400D01*
X355400Y499200D01*
X495140Y529000D02*
X497000D01*
X460200Y521382D02*
X470522D01*
X471900Y522760D01*
X475960Y518700D02*
X479700D01*
X471900Y522760D02*
X475960Y518700D01*
X482517Y475800D02*
X495300D01*
X358800Y507000D02*
X366600D01*
X374400Y499200D01*
X378300Y503100D01*
X374400Y495300D02*
Y499200D01*
X366301Y487201D02*
X374400Y495300D01*
X366301Y475501D02*
Y487201D01*
X297000Y445000D02*
X327501Y475501D01*
X366301D01*
X500400Y479500D02*
X521800Y500900D01*
X537100D01*
X567500Y538500D02*
X583000D01*
X553600Y524400D02*
X557600Y520400D01*
Y518900D02*
Y520400D01*
X553600Y524600D02*
X567500Y538500D01*
X542700Y523200D02*
X550800D01*
X550200Y522600D02*
X550800Y523200D01*
X553600Y524400D02*
Y524600D01*
X550200Y519800D02*
Y522600D01*
X550800Y523200D02*
X553600Y526000D01*
Y524600D02*
Y526000D01*
X485550Y176150D02*
Y371950D01*
X504240Y425620D02*
Y427400D01*
Y425620D02*
X509860Y420000D01*
X485550Y371950D02*
X491000Y377400D01*
X494900D01*
X366301Y475501D02*
X369253Y472550D01*
X479268D01*
X482517Y475800D01*
X494900Y377400D02*
Y400100D01*
X514800Y420000D01*
D25*
X471740Y479860D02*
X471900Y479700D01*
X422613Y404700D02*
X423272Y405360D01*
X416200Y404700D02*
X422613D01*
X560700Y439600D02*
Y454100D01*
X546750Y468050D02*
X560700Y454100D01*
X393900Y423860D02*
X394260Y423500D01*
X335400Y423520D02*
X335420Y423500D01*
X335400Y423520D02*
Y432900D01*
X304200Y425300D02*
X306000Y423500D01*
X304200Y425300D02*
Y432900D01*
X521253Y448948D02*
Y455604D01*
X460118Y531618D02*
X460200D01*
X460500Y530400D02*
Y532000D01*
X460118Y531618D02*
X460500Y532000D01*
X486420Y530240D02*
X487660Y529000D01*
X471900Y487340D02*
X472060Y487500D01*
X486900Y488260D02*
X487660Y487500D01*
X460200Y488718D02*
X461418Y487500D01*
X524350Y468050D02*
X546750D01*
X516300Y476100D02*
X524350Y468050D01*
X516300Y476100D02*
Y480400D01*
X514500Y442196D02*
X521253Y448948D01*
X528500Y439600D02*
X530700D01*
X526200Y445100D02*
X526300D01*
D26*
X589000Y175000D02*
Y215500D01*
X574800Y160800D02*
X589000Y175000D01*
Y215500D02*
X597000Y223500D01*
X618000Y231000D02*
X638500Y210500D01*
X574500Y149300D02*
X574800Y149600D01*
Y160800D01*
X596091Y242891D02*
X607900Y254700D01*
X597000Y223500D02*
Y242891D01*
X310500Y232500D02*
X312000Y234000D01*
X364500Y206500D02*
Y210091D01*
X586500Y410000D02*
X587800Y408700D01*
Y399100D02*
Y408700D01*
X607900Y254700D02*
X616100D01*
D27*
X561600Y273000D02*
X565500D01*
X514800Y315974D02*
X518626D01*
X561600Y273000D01*
X514800Y308100D02*
X522600D01*
X565500Y265200D01*
D28*
X533000Y528000D02*
D03*
X536300Y480400D02*
D03*
X526300D02*
D03*
X516300D02*
D03*
Y451600D02*
D03*
X526300D02*
D03*
X536300D02*
D03*
X546300D02*
D03*
X564500Y146800D02*
D03*
X461700Y390600D02*
D03*
X461800Y410400D02*
D03*
D29*
X523000Y528000D02*
D03*
X546300Y480400D02*
D03*
X574500Y146800D02*
D03*
X451700Y390600D02*
D03*
X451800Y410400D02*
D03*
D30*
X587800Y389100D02*
D03*
Y379100D02*
D03*
Y399100D02*
D03*
D31*
Y369100D02*
D03*
D32*
X618000Y231000D02*
D03*
X597000Y242891D02*
D03*
X565800D02*
D03*
X581400Y201709D02*
D03*
X344872Y156000D02*
D03*
X348200Y240964D02*
D03*
X338200Y211436D02*
D03*
D33*
X650000Y336300D02*
D03*
Y351900D02*
D03*
Y367500D02*
D03*
Y383100D02*
D03*
Y398700D02*
D03*
Y414300D02*
D03*
Y429900D02*
D03*
Y445500D02*
D03*
X650200Y186700D02*
D03*
Y202300D02*
D03*
Y217900D02*
D03*
Y233500D02*
D03*
Y249100D02*
D03*
Y264700D02*
D03*
Y280300D02*
D03*
Y295900D02*
D03*
X650000Y585900D02*
D03*
Y570300D02*
D03*
Y554700D02*
D03*
Y539100D02*
D03*
Y523500D02*
D03*
Y507900D02*
D03*
Y492300D02*
D03*
Y476700D02*
D03*
D34*
Y461100D02*
D03*
X650200Y311500D02*
D03*
X650000Y601500D02*
D03*
D35*
X508300Y578674D02*
D03*
X506926Y315974D02*
D03*
D36*
X508300Y570800D02*
D03*
Y562926D02*
D03*
Y555052D02*
D03*
X516174Y578674D02*
D03*
Y570800D02*
D03*
Y562926D02*
D03*
Y555052D02*
D03*
X506926Y308100D02*
D03*
Y300226D02*
D03*
Y292352D02*
D03*
X514800Y315974D02*
D03*
Y308100D02*
D03*
Y300226D02*
D03*
Y292352D02*
D03*
D37*
X590900Y636800D02*
D03*
X510200Y180400D02*
D03*
X541400D02*
D03*
X557000D02*
D03*
X525800D02*
D03*
X620400Y468500D02*
D03*
X628200Y201700D02*
D03*
X608400Y156000D02*
D03*
X592800D02*
D03*
X606500Y636800D02*
D03*
X592800Y499200D02*
D03*
Y468000D02*
D03*
Y436800D02*
D03*
Y312000D02*
D03*
Y343200D02*
D03*
Y280800D02*
D03*
Y530400D02*
D03*
Y561600D02*
D03*
Y592800D02*
D03*
X312000Y234000D02*
D03*
Y202800D02*
D03*
X628200Y186100D02*
D03*
D38*
X597000Y201709D02*
D03*
X565800D02*
D03*
X581400Y242891D02*
D03*
D39*
X403928Y156000D02*
D03*
D40*
X417752Y282000D02*
D03*
X324248D02*
D03*
D41*
X454300Y174600D02*
D03*
X560700Y439600D02*
D03*
D42*
X454300Y164600D02*
D03*
X484300Y174600D02*
D03*
Y164600D02*
D03*
X550700Y439600D02*
D03*
X540700D02*
D03*
X530700D02*
D03*
X520700D02*
D03*
D43*
X381409Y227000D02*
D03*
X422591Y185500D02*
D03*
D44*
Y227000D02*
D03*
X381409Y185500D02*
D03*
X312000Y218400D02*
D03*
D45*
X439000Y246500D02*
D03*
X364000D02*
D03*
X439500Y206500D02*
D03*
X364500D02*
D03*
D46*
X439500Y518100D02*
D03*
X429500D02*
D03*
X419500D02*
D03*
X409500D02*
D03*
X399500D02*
D03*
X389500D02*
D03*
X379500D02*
D03*
X439500Y488100D02*
D03*
X429500D02*
D03*
X419500D02*
D03*
X409500D02*
D03*
X399500D02*
D03*
X389500D02*
D03*
D47*
X379500D02*
D03*
D48*
X526200Y297300D02*
D03*
X538200Y374400D02*
D03*
X393900Y432900D02*
D03*
X304200D02*
D03*
X335400D02*
D03*
X428000Y463500D02*
D03*
X415000D02*
D03*
X488000Y428000D02*
D03*
X538200Y390000D02*
D03*
X495300Y475800D02*
D03*
X514800Y420000D02*
D03*
X351100Y496200D02*
D03*
X479700Y518700D02*
D03*
Y479700D02*
D03*
X374400Y370500D02*
D03*
X565500Y265200D02*
D03*
X373600Y471800D02*
D03*
X402900Y412900D02*
D03*
X343900Y466600D02*
D03*
X565500Y273000D02*
D03*
X493200Y277700D02*
D03*
X527300Y506900D02*
D03*
X538300Y502400D02*
D03*
X416200Y404700D02*
D03*
X494900Y377400D02*
D03*
X442000Y448400D02*
D03*
X440800Y421100D02*
D03*
D49*
X681000Y150000D02*
D03*
X682000Y650000D02*
D03*
X300500Y649500D02*
D03*
X301000Y150000D02*
D03*
D50*
X312000Y249600D02*
D03*
Y187200D02*
D03*
X575300Y636700D02*
D03*
X622100D02*
D03*
D51*
X524100Y216800D02*
D03*
X459000Y594500D02*
D03*
D52*
X459800Y629700D02*
D03*
X503300Y243700D02*
D03*
M02*
