G04 Layer_Color=16711935*
%FSLAX25Y25*%
%MOIN*%
G70*
G01*
G75*
%ADD66O,0.08800X0.13800*%
G04:AMPARAMS|DCode=67|XSize=138mil|YSize=88mil|CornerRadius=14mil|HoleSize=0mil|Usage=FLASHONLY|Rotation=90.000|XOffset=0mil|YOffset=0mil|HoleType=Round|Shape=RoundedRectangle|*
%AMROUNDEDRECTD67*
21,1,0.13800,0.06000,0,0,90.0*
21,1,0.11000,0.08800,0,0,90.0*
1,1,0.02800,0.03000,0.05500*
1,1,0.02800,0.03000,-0.05500*
1,1,0.02800,-0.03000,-0.05500*
1,1,0.02800,-0.03000,0.05500*
%
%ADD67ROUNDEDRECTD67*%
%ADD78C,0.06800*%
G04:AMPARAMS|DCode=79|XSize=68mil|YSize=68mil|CornerRadius=11.5mil|HoleSize=0mil|Usage=FLASHONLY|Rotation=90.000|XOffset=0mil|YOffset=0mil|HoleType=Round|Shape=RoundedRectangle|*
%AMROUNDEDRECTD79*
21,1,0.06800,0.04500,0,0,90.0*
21,1,0.04500,0.06800,0,0,90.0*
1,1,0.02300,0.02250,0.02250*
1,1,0.02300,0.02250,-0.02250*
1,1,0.02300,-0.02250,-0.02250*
1,1,0.02300,-0.02250,0.02250*
%
%ADD79ROUNDEDRECTD79*%
%ADD80O,0.08800X0.06800*%
G04:AMPARAMS|DCode=81|XSize=68mil|YSize=88mil|CornerRadius=11.5mil|HoleSize=0mil|Usage=FLASHONLY|Rotation=90.000|XOffset=0mil|YOffset=0mil|HoleType=Round|Shape=RoundedRectangle|*
%AMROUNDEDRECTD81*
21,1,0.06800,0.06500,0,0,90.0*
21,1,0.04500,0.08800,0,0,90.0*
1,1,0.02300,0.03250,0.02250*
1,1,0.02300,0.03250,-0.02250*
1,1,0.02300,-0.03250,-0.02250*
1,1,0.02300,-0.03250,0.02250*
%
%ADD81ROUNDEDRECTD81*%
%ADD82C,0.08674*%
%ADD83O,0.16548X0.12611*%
%ADD84R,0.16548X0.12611*%
%ADD85R,0.05918X0.05918*%
%ADD86C,0.05918*%
%ADD87C,0.12611*%
%ADD88R,0.08674X0.08674*%
%ADD89R,0.08674X0.08674*%
%ADD90C,0.11036*%
%ADD91R,0.06706X0.06706*%
%ADD92C,0.06706*%
%ADD93R,0.10800X0.10800*%
%ADD94C,0.10800*%
%ADD95C,0.12800*%
%ADD96C,0.06706*%
%ADD97R,0.06706X0.06706*%
%ADD98C,0.05800*%
%ADD99C,0.30800*%
%ADD100C,0.18800*%
G36*
X695200Y607400D02*
X695200Y211500D01*
X638700Y211500D01*
Y240100D01*
X665200D01*
X665200Y518300D01*
X565700Y518300D01*
X565700Y608500D01*
X694100Y608500D01*
X695200Y607400D01*
D02*
G37*
G36*
X694900Y209600D02*
X694900Y177850D01*
X616400Y177850D01*
X616400Y209600D01*
X694900Y209600D01*
D02*
G37*
G36*
X662000Y407000D02*
X565500D01*
Y512000D01*
X662000D01*
Y407000D01*
D02*
G37*
G36*
Y359500D02*
Y344554D01*
X636900D01*
X637400Y271500D01*
X659900D01*
X661000Y243200D01*
X623650Y243200D01*
X577950Y259800D01*
Y273150D01*
X577700Y293800D01*
Y359500D01*
X577200Y360000D01*
X661500D01*
X662000Y359500D01*
D02*
G37*
D66*
X533000Y525500D02*
D03*
X564500Y149300D02*
D03*
X461700Y388100D02*
D03*
X461800Y407900D02*
D03*
D67*
X523000Y525500D02*
D03*
X574500Y149300D02*
D03*
X451700Y388100D02*
D03*
X451800Y407900D02*
D03*
D78*
X533000Y528000D02*
D03*
X536300Y480400D02*
D03*
X526300D02*
D03*
X516300D02*
D03*
Y451600D02*
D03*
X526300D02*
D03*
X536300D02*
D03*
X546300D02*
D03*
X564500Y146800D02*
D03*
X461700Y390600D02*
D03*
X461800Y410400D02*
D03*
D79*
X523000Y528000D02*
D03*
X546300Y480400D02*
D03*
X574500Y146800D02*
D03*
X451700Y390600D02*
D03*
X451800Y410400D02*
D03*
D80*
X587800Y389100D02*
D03*
Y379100D02*
D03*
Y399100D02*
D03*
D81*
Y369100D02*
D03*
D82*
X618000Y231000D02*
D03*
X597000Y242891D02*
D03*
X565800D02*
D03*
X581400Y201709D02*
D03*
X344872Y156000D02*
D03*
X348200Y240964D02*
D03*
X338200Y211436D02*
D03*
D83*
X650000Y336300D02*
D03*
Y351900D02*
D03*
Y367500D02*
D03*
Y383100D02*
D03*
Y398700D02*
D03*
Y414300D02*
D03*
Y429900D02*
D03*
Y445500D02*
D03*
X650200Y186700D02*
D03*
Y202300D02*
D03*
Y217900D02*
D03*
Y233500D02*
D03*
Y249100D02*
D03*
Y264700D02*
D03*
Y280300D02*
D03*
Y295900D02*
D03*
X650000Y585900D02*
D03*
Y570300D02*
D03*
Y554700D02*
D03*
Y539100D02*
D03*
Y523500D02*
D03*
Y507900D02*
D03*
Y492300D02*
D03*
Y476700D02*
D03*
D84*
Y461100D02*
D03*
X650200Y311500D02*
D03*
X650000Y601500D02*
D03*
D85*
X508300Y578674D02*
D03*
X506926Y315974D02*
D03*
D86*
X508300Y570800D02*
D03*
Y562926D02*
D03*
Y555052D02*
D03*
X516174Y578674D02*
D03*
Y570800D02*
D03*
Y562926D02*
D03*
Y555052D02*
D03*
X506926Y308100D02*
D03*
Y300226D02*
D03*
Y292352D02*
D03*
X514800Y315974D02*
D03*
Y308100D02*
D03*
Y300226D02*
D03*
Y292352D02*
D03*
D87*
X590900Y636800D02*
D03*
X510200Y180400D02*
D03*
X541400D02*
D03*
X557000D02*
D03*
X525800D02*
D03*
X608400Y156000D02*
D03*
X592800D02*
D03*
X606500Y636800D02*
D03*
X592800Y499200D02*
D03*
Y468000D02*
D03*
Y436800D02*
D03*
Y312000D02*
D03*
Y343200D02*
D03*
Y280800D02*
D03*
Y530400D02*
D03*
Y561600D02*
D03*
Y592800D02*
D03*
X312000Y234000D02*
D03*
Y202800D02*
D03*
X628200Y186100D02*
D03*
D88*
X597000Y201709D02*
D03*
X565800D02*
D03*
X581400Y242891D02*
D03*
D89*
X403928Y156000D02*
D03*
D90*
X417752Y282000D02*
D03*
X324248D02*
D03*
D91*
X454300Y174600D02*
D03*
X560700Y439600D02*
D03*
D92*
X454300Y164600D02*
D03*
X484300Y174600D02*
D03*
Y164600D02*
D03*
X550700Y439600D02*
D03*
X540700D02*
D03*
X530700D02*
D03*
X520700D02*
D03*
D93*
X381409Y227000D02*
D03*
X422591Y185500D02*
D03*
D94*
Y227000D02*
D03*
X381409Y185500D02*
D03*
D95*
X439000Y246500D02*
D03*
X364000D02*
D03*
X439500Y206500D02*
D03*
X364500D02*
D03*
D96*
X439500Y518100D02*
D03*
X429500D02*
D03*
X419500D02*
D03*
X409500D02*
D03*
X399500D02*
D03*
X389500D02*
D03*
X379500D02*
D03*
X439500Y488100D02*
D03*
X429500D02*
D03*
X419500D02*
D03*
X409500D02*
D03*
X399500D02*
D03*
X389500D02*
D03*
D97*
X379500D02*
D03*
D98*
X526200Y297300D02*
D03*
X538200Y374400D02*
D03*
X393900Y432900D02*
D03*
X304200D02*
D03*
X335400D02*
D03*
X428000Y463500D02*
D03*
X415000D02*
D03*
X488000Y428000D02*
D03*
X538200Y390000D02*
D03*
X495300Y475800D02*
D03*
X514800Y420000D02*
D03*
X351100Y496200D02*
D03*
X479700Y518700D02*
D03*
Y479700D02*
D03*
X374400Y370500D02*
D03*
X565500Y265200D02*
D03*
X373600Y471800D02*
D03*
X402900Y412900D02*
D03*
X343900Y466600D02*
D03*
X565500Y273000D02*
D03*
X493200Y277700D02*
D03*
X527300Y506900D02*
D03*
X538300Y502400D02*
D03*
X416200Y404700D02*
D03*
X494900Y377400D02*
D03*
X442000Y448400D02*
D03*
X440800Y421100D02*
D03*
D99*
X524100Y216800D02*
D03*
X459000Y594500D02*
D03*
D100*
X459800Y629700D02*
D03*
X503300Y243700D02*
D03*
M02*
