G04 Layer_Color=8421504*
%FSLAX25Y25*%
%MOIN*%
G70*
G01*
G75*
%ADD10O,0.08000X0.13000*%
G04:AMPARAMS|DCode=11|XSize=130mil|YSize=80mil|CornerRadius=10mil|HoleSize=0mil|Usage=FLASHONLY|Rotation=90.000|XOffset=0mil|YOffset=0mil|HoleType=Round|Shape=RoundedRectangle|*
%AMROUNDEDRECTD11*
21,1,0.13000,0.06000,0,0,90.0*
21,1,0.11000,0.08000,0,0,90.0*
1,1,0.02000,0.03000,0.05500*
1,1,0.02000,0.03000,-0.05500*
1,1,0.02000,-0.03000,-0.05500*
1,1,0.02000,-0.03000,0.05500*
%
%ADD11ROUNDEDRECTD11*%
%ADD12R,0.05118X0.05905*%
G04:AMPARAMS|DCode=13|XSize=70.87mil|YSize=47.24mil|CornerRadius=5.91mil|HoleSize=0mil|Usage=FLASHONLY|Rotation=270.000|XOffset=0mil|YOffset=0mil|HoleType=Round|Shape=RoundedRectangle|*
%AMROUNDEDRECTD13*
21,1,0.07087,0.03543,0,0,270.0*
21,1,0.05905,0.04724,0,0,270.0*
1,1,0.01181,-0.01772,-0.02953*
1,1,0.01181,-0.01772,0.02953*
1,1,0.01181,0.01772,0.02953*
1,1,0.01181,0.01772,-0.02953*
%
%ADD13ROUNDEDRECTD13*%
G04:AMPARAMS|DCode=14|XSize=23.62mil|YSize=39.37mil|CornerRadius=2.95mil|HoleSize=0mil|Usage=FLASHONLY|Rotation=270.000|XOffset=0mil|YOffset=0mil|HoleType=Round|Shape=RoundedRectangle|*
%AMROUNDEDRECTD14*
21,1,0.02362,0.03347,0,0,270.0*
21,1,0.01772,0.03937,0,0,270.0*
1,1,0.00591,-0.01673,-0.00886*
1,1,0.00591,-0.01673,0.00886*
1,1,0.00591,0.01673,0.00886*
1,1,0.00591,0.01673,-0.00886*
%
%ADD14ROUNDEDRECTD14*%
%ADD15R,0.05905X0.05118*%
%ADD16R,0.04724X0.04724*%
%ADD17R,0.04900X0.03900*%
%ADD18R,0.03500X0.03100*%
%ADD19R,0.03900X0.04900*%
%ADD20R,0.03100X0.03500*%
G04:AMPARAMS|DCode=21|XSize=70.87mil|YSize=47.24mil|CornerRadius=5.91mil|HoleSize=0mil|Usage=FLASHONLY|Rotation=0.000|XOffset=0mil|YOffset=0mil|HoleType=Round|Shape=RoundedRectangle|*
%AMROUNDEDRECTD21*
21,1,0.07087,0.03543,0,0,0.0*
21,1,0.05905,0.04724,0,0,0.0*
1,1,0.01181,0.02953,-0.01772*
1,1,0.01181,-0.02953,-0.01772*
1,1,0.01181,-0.02953,0.01772*
1,1,0.01181,0.02953,0.01772*
%
%ADD21ROUNDEDRECTD21*%
D10*
X533000Y525500D02*
D03*
X564500Y149300D02*
D03*
X461700Y388100D02*
D03*
X461800Y407900D02*
D03*
D11*
X523000Y525500D02*
D03*
X574500Y149300D02*
D03*
X451700Y388100D02*
D03*
X451800Y407900D02*
D03*
D12*
X487660Y487500D02*
D03*
X495140D02*
D03*
X535440Y601200D02*
D03*
X527960D02*
D03*
X365220Y423400D02*
D03*
X372700D02*
D03*
X401740D02*
D03*
X394260D02*
D03*
X306000D02*
D03*
X313480D02*
D03*
X342900D02*
D03*
X335420D02*
D03*
X496760Y427400D02*
D03*
X504240D02*
D03*
X464060Y449400D02*
D03*
X471540D02*
D03*
X464160Y463000D02*
D03*
X471640D02*
D03*
X487660Y529000D02*
D03*
X495140D02*
D03*
X440700Y534300D02*
D03*
X433220D02*
D03*
X389360Y465200D02*
D03*
X396840D02*
D03*
D13*
X460200Y478482D02*
D03*
Y488718D02*
D03*
Y521382D02*
D03*
Y531618D02*
D03*
D14*
X558328Y390000D02*
D03*
X549272Y386260D02*
D03*
Y393740D02*
D03*
X558328Y374400D02*
D03*
X549272Y370660D02*
D03*
Y378140D02*
D03*
X422572Y412840D02*
D03*
Y405360D02*
D03*
X431628Y409100D02*
D03*
D15*
X471900Y530240D02*
D03*
Y522760D02*
D03*
Y487340D02*
D03*
Y479860D02*
D03*
X422600Y421960D02*
D03*
Y429440D02*
D03*
X462500D02*
D03*
Y421960D02*
D03*
X449000D02*
D03*
Y429440D02*
D03*
D16*
X402134Y405000D02*
D03*
X393866D02*
D03*
X313768D02*
D03*
X305500D02*
D03*
X343223D02*
D03*
X334955D02*
D03*
X363866D02*
D03*
X372134D02*
D03*
D17*
X358800Y506900D02*
D03*
Y499300D02*
D03*
D18*
X486900Y511750D02*
D03*
Y504250D02*
D03*
X495100Y508000D02*
D03*
D19*
X552800Y491600D02*
D03*
X560400D02*
D03*
D20*
X553850Y510700D02*
D03*
X550100Y518900D02*
D03*
X557600D02*
D03*
D21*
X560918Y501200D02*
D03*
X550682D02*
D03*
M02*
