G04 Layer_Physical_Order=2*
G04 Layer_Color=16711680*
%FSLAX25Y25*%
%MOIN*%
G70*
G01*
G75*
%ADD10O,0.08000X0.13000*%
G04:AMPARAMS|DCode=11|XSize=130mil|YSize=80mil|CornerRadius=10mil|HoleSize=0mil|Usage=FLASHONLY|Rotation=90.000|XOffset=0mil|YOffset=0mil|HoleType=Round|Shape=RoundedRectangle|*
%AMROUNDEDRECTD11*
21,1,0.13000,0.06000,0,0,90.0*
21,1,0.11000,0.08000,0,0,90.0*
1,1,0.02000,0.03000,0.05500*
1,1,0.02000,0.03000,-0.05500*
1,1,0.02000,-0.03000,-0.05500*
1,1,0.02000,-0.03000,0.05500*
%
%ADD11ROUNDEDRECTD11*%
%ADD22C,0.10000*%
%ADD23C,0.02000*%
%ADD24C,0.02500*%
%ADD25C,0.01200*%
%ADD26C,0.05000*%
%ADD27C,0.01000*%
%ADD28C,0.06000*%
G04:AMPARAMS|DCode=29|XSize=60mil|YSize=60mil|CornerRadius=7.5mil|HoleSize=0mil|Usage=FLASHONLY|Rotation=90.000|XOffset=0mil|YOffset=0mil|HoleType=Round|Shape=RoundedRectangle|*
%AMROUNDEDRECTD29*
21,1,0.06000,0.04500,0,0,90.0*
21,1,0.04500,0.06000,0,0,90.0*
1,1,0.01500,0.02250,0.02250*
1,1,0.01500,0.02250,-0.02250*
1,1,0.01500,-0.02250,-0.02250*
1,1,0.01500,-0.02250,0.02250*
%
%ADD29ROUNDEDRECTD29*%
%ADD30O,0.08000X0.06000*%
G04:AMPARAMS|DCode=31|XSize=60mil|YSize=80mil|CornerRadius=7.5mil|HoleSize=0mil|Usage=FLASHONLY|Rotation=90.000|XOffset=0mil|YOffset=0mil|HoleType=Round|Shape=RoundedRectangle|*
%AMROUNDEDRECTD31*
21,1,0.06000,0.06500,0,0,90.0*
21,1,0.04500,0.08000,0,0,90.0*
1,1,0.01500,0.03250,0.02250*
1,1,0.01500,0.03250,-0.02250*
1,1,0.01500,-0.03250,-0.02250*
1,1,0.01500,-0.03250,0.02250*
%
%ADD31ROUNDEDRECTD31*%
%ADD32C,0.07874*%
%ADD33O,0.15748X0.11811*%
%ADD34R,0.15748X0.11811*%
%ADD35R,0.05118X0.05118*%
%ADD36C,0.05118*%
%ADD37C,0.11811*%
%ADD38R,0.07874X0.07874*%
%ADD39R,0.07874X0.07874*%
%ADD40C,0.10236*%
%ADD41R,0.05905X0.05905*%
%ADD42C,0.05905*%
%ADD43R,0.10000X0.10000*%
%ADD44C,0.10000*%
%ADD45C,0.12000*%
%ADD46C,0.05905*%
%ADD47R,0.05905X0.05905*%
%ADD48C,0.05000*%
%ADD49C,0.16000*%
%ADD50C,0.13000*%
%ADD51C,0.30000*%
%ADD52C,0.18000*%
%ADD53C,0.00800*%
G36*
X695200Y607400D02*
X695200Y211500D01*
X638700Y211500D01*
Y240100D01*
X665200D01*
X665200Y518300D01*
X565700Y518300D01*
X565700Y608500D01*
X694100Y608500D01*
X695200Y607400D01*
D02*
G37*
G36*
X694900Y209600D02*
X694900Y177850D01*
X616400Y177850D01*
X616400Y209600D01*
X694900Y209600D01*
D02*
G37*
G36*
X662000Y407000D02*
X565500D01*
Y512000D01*
X662000D01*
Y407000D01*
D02*
G37*
G36*
Y359500D02*
Y344554D01*
X636900D01*
X637400Y271500D01*
X659900D01*
X661000Y243200D01*
X623650Y243200D01*
X577950Y259800D01*
Y273150D01*
X577700Y293800D01*
Y359500D01*
X577200Y360000D01*
X661500D01*
X662000Y359500D01*
D02*
G37*
D10*
X533000Y525500D02*
D03*
X564500Y149300D02*
D03*
X461700Y388100D02*
D03*
X461800Y407900D02*
D03*
D11*
X523000Y525500D02*
D03*
X574500Y149300D02*
D03*
X451700Y388100D02*
D03*
X451800Y407900D02*
D03*
D22*
X650000Y162200D02*
Y202300D01*
X643800Y156000D02*
X650000Y162200D01*
X608400Y156000D02*
X643800D01*
D23*
X515000Y553878D02*
X516174Y555052D01*
X515000Y509700D02*
Y553878D01*
X510300Y505000D02*
X515000Y509700D01*
X508300Y555052D02*
X512000Y551352D01*
Y512000D02*
Y551352D01*
X506800Y506800D02*
X512000Y512000D01*
X526200Y297300D02*
X527800Y298900D01*
Y329900D01*
X531400Y294600D02*
Y327100D01*
X529152Y292352D02*
X531400Y294600D01*
X514800Y292352D02*
X529152D01*
X529929Y351371D02*
X530700Y352143D01*
X527800Y329900D02*
X529929Y332029D01*
Y351371D01*
X530700Y352143D02*
Y369257D01*
X519600Y380357D02*
X530700Y369257D01*
X519836Y393307D02*
Y404357D01*
X507300Y416893D02*
X519836Y404357D01*
X519600Y393071D02*
X519836Y393307D01*
X519600Y380357D02*
Y393071D01*
X506800Y432700D02*
X507300Y432200D01*
Y416893D02*
Y432200D01*
X510300Y418136D02*
Y505000D01*
X506800Y432700D02*
Y506800D01*
X514800Y420000D02*
X530700Y435900D01*
X510300Y418136D02*
X522836Y405600D01*
Y392064D02*
Y405600D01*
X522600Y381600D02*
X533700Y370500D01*
X522600Y381600D02*
Y391828D01*
X522836Y392064D01*
X405000Y477600D02*
X415000Y467600D01*
Y463500D02*
Y467600D01*
X394300Y477600D02*
X405000D01*
X439200Y500000D02*
X448500Y490700D01*
X419500Y488100D02*
Y490500D01*
X429000Y500000D02*
X439200D01*
X410050Y487550D02*
X429000Y468600D01*
X428000Y463500D02*
Y465621D01*
X429000Y466621D01*
Y468600D01*
X389500Y482400D02*
X394300Y477600D01*
X389500Y482400D02*
Y488100D01*
X374400Y370500D02*
X424700D01*
X476100Y298557D02*
X488500Y286157D01*
X476100Y298557D02*
Y348200D01*
X424700Y370500D02*
X427600Y367600D01*
X456700D01*
X476100Y348200D01*
X488500Y279900D02*
Y286157D01*
X490500Y277900D02*
X491500D01*
X393900Y432900D02*
Y451500D01*
X373600Y471800D02*
X393900Y451500D01*
X374300Y526300D02*
X431300D01*
X331600Y483600D02*
X374300Y526300D01*
X331600Y460800D02*
Y483600D01*
Y460800D02*
X356100Y436300D01*
X377200D01*
X385000Y428500D01*
Y418200D02*
Y428500D01*
Y418200D02*
X390300Y412900D01*
X402900D01*
X343900Y466600D02*
Y471900D01*
X375200Y503200D01*
X409900D01*
X418257Y511557D01*
Y516857D02*
X419500Y518100D01*
X429500Y479200D02*
Y488100D01*
Y479200D02*
X436800Y471900D01*
X488500Y279900D02*
X490700Y277700D01*
X493200D01*
X527300Y489400D02*
Y506900D01*
Y489400D02*
X536300Y480400D01*
X431300Y526300D02*
X439500Y518100D01*
X419500Y490500D02*
X429000Y500000D01*
X418257Y511557D02*
Y516857D01*
X448500Y454800D02*
Y490700D01*
Y454800D02*
X461125Y442175D01*
X533700Y329400D02*
Y370500D01*
X531400Y327100D02*
X533700Y329400D01*
X494900Y377400D02*
Y393100D01*
X486375D02*
X494900D01*
X463600Y428500D02*
Y442175D01*
Y428500D02*
X486375Y405725D01*
Y393100D02*
Y405725D01*
X461125Y442175D02*
X463600D01*
X441900Y448400D02*
X442000D01*
X436800Y453500D02*
X441900Y448400D01*
X436800Y453500D02*
Y471900D01*
D24*
X521000Y523500D02*
X523000Y525500D01*
X521000Y504000D02*
Y523500D01*
Y504000D02*
X524050Y500950D01*
Y488054D02*
Y500950D01*
Y488054D02*
X526300Y485804D01*
Y480400D02*
Y485804D01*
X488500Y428500D02*
X490500Y430500D01*
Y471000D01*
X495300Y475800D01*
D25*
X538800Y559800D02*
X561400D01*
X527800Y570800D02*
X538800Y559800D01*
X516174Y570800D02*
X527800D01*
X563600Y516300D02*
Y560711D01*
X562311Y562000D02*
X563600Y560711D01*
X539900Y562000D02*
X562311D01*
X523226Y578674D02*
X539900Y562000D01*
X516174Y578674D02*
X523226D01*
X561400Y515389D02*
Y559800D01*
Y515389D02*
X562789Y514000D01*
X643900D01*
X530700Y435900D02*
Y439600D01*
X643900Y514000D02*
X650000Y507900D01*
X563600Y516300D02*
X642800D01*
X650000Y523500D01*
X623100Y241000D02*
X623200Y240900D01*
X608349Y249983D02*
X608893Y250528D01*
X599294Y248428D02*
X600321Y247400D01*
X650200Y244600D02*
Y249100D01*
X601200Y247400D02*
X604600Y244000D01*
X600321Y247400D02*
X601200D01*
X600205Y250628D02*
X601232Y249600D01*
X555100Y470000D02*
Y485100D01*
X538300Y501900D02*
X555100Y485100D01*
X538300Y501900D02*
Y502400D01*
X553200Y468100D02*
X555100Y470000D01*
X553200Y442100D02*
Y468100D01*
X550700Y439600D02*
X553200Y442100D01*
D26*
X548200Y136300D02*
X596500D01*
X548200D02*
Y149700D01*
X596500Y136300D02*
X600600Y140400D01*
X592800Y156000D02*
Y160800D01*
X583900Y169700D02*
X592800Y160800D01*
X570700Y169700D02*
X583900D01*
X565800Y191400D02*
Y201709D01*
Y190000D02*
Y191400D01*
X564500Y149300D02*
Y163500D01*
X570700Y169700D01*
Y185100D01*
X565800Y190000D02*
X570700Y185100D01*
X543850Y154050D02*
X548200Y149700D01*
X525800Y172100D02*
X543850Y154050D01*
X557000Y170300D02*
Y180400D01*
X543850Y157150D02*
X557000Y170300D01*
X543850Y154050D02*
Y157150D01*
X525800Y172100D02*
Y180400D01*
X517700Y190600D02*
X551600D01*
X510200Y183100D02*
X517700Y190600D01*
X510200Y180400D02*
Y183100D01*
X541400Y180400D02*
X551600Y190600D01*
X565000D01*
X565800Y191400D01*
X324748Y246748D02*
Y282000D01*
X565400Y242791D02*
X573500D01*
X591000Y154200D02*
X592800Y156000D01*
X383400Y282000D02*
X417752D01*
X318300Y202800D02*
X330750Y190350D01*
X341600Y140400D02*
X386100D01*
X422591Y185500D02*
X439500Y202410D01*
X422591Y230091D02*
X439000Y246500D01*
X364000Y262600D02*
X383400Y282000D01*
X316763Y238100D02*
X323500Y244836D01*
Y245500D02*
X324748Y246748D01*
X364000Y246500D02*
Y262600D01*
X344872Y156000D02*
Y204764D01*
X338200Y211436D02*
X344872Y204764D01*
X338200Y211436D02*
X364000Y237236D01*
Y246500D01*
X330750Y152850D02*
Y190350D01*
Y152850D02*
X341600Y142000D01*
Y140400D02*
Y142000D01*
X386100Y140400D02*
X401700Y156000D01*
X381409Y178518D02*
Y185500D01*
X364500Y206500D02*
X369391Y211391D01*
X378300Y223891D02*
X381409Y227000D01*
X323700Y216464D02*
X348200Y240964D01*
X573500Y242791D02*
X580400Y242842D01*
X581400Y201709D02*
X597000D01*
X600800Y140600D02*
X600900D01*
X600800D02*
X608400Y148200D01*
Y156000D01*
X369391Y211391D02*
Y213691D01*
X378300Y222600D01*
Y223891D01*
X381409Y178518D02*
X403428Y156500D01*
X417300D01*
X318300Y202800D02*
Y205200D01*
X323700Y210600D01*
Y216464D01*
X439500Y181700D02*
Y202410D01*
Y206500D01*
X417300Y156500D02*
X424800Y164000D01*
X451800D01*
X452400Y164600D01*
X439500Y181700D02*
X446600Y174600D01*
X454300D01*
X452400Y164600D02*
X454300D01*
D27*
X610600Y244000D02*
X615900Y238700D01*
X636400D01*
X604600Y244000D02*
X610600D01*
X616900Y240900D02*
X623200D01*
X611800Y246000D02*
X616900Y240900D01*
X605570Y246000D02*
X611800D01*
X488000Y428000D02*
X488500Y428500D01*
X569400Y266957D02*
Y269100D01*
X565500Y254289D02*
Y265200D01*
X570200Y252700D02*
X572272Y250628D01*
X570200Y252700D02*
Y266157D01*
X569400Y266957D02*
X570200Y266157D01*
X636400Y209100D02*
Y238700D01*
X623100Y241000D02*
X637100D01*
X571361Y248428D02*
X599294D01*
X565500Y273000D02*
X569400Y269100D01*
X565500Y254289D02*
X571361Y248428D01*
X637100Y241000D02*
X637700Y241600D01*
X648900D01*
X650200Y242900D01*
Y244600D01*
X601232Y249600D02*
X601332Y249500D01*
X602070D01*
X605570Y246000D01*
X572272Y250628D02*
X600205D01*
D28*
X533000Y528000D02*
D03*
X536300Y480400D02*
D03*
X526300D02*
D03*
X516300D02*
D03*
Y451600D02*
D03*
X526300D02*
D03*
X536300D02*
D03*
X546300D02*
D03*
X564500Y146800D02*
D03*
X461700Y390600D02*
D03*
X461800Y410400D02*
D03*
D29*
X523000Y528000D02*
D03*
X546300Y480400D02*
D03*
X574500Y146800D02*
D03*
X451700Y390600D02*
D03*
X451800Y410400D02*
D03*
D30*
X587800Y389100D02*
D03*
Y379100D02*
D03*
Y399100D02*
D03*
D31*
Y369100D02*
D03*
D32*
X618000Y231000D02*
D03*
X597000Y242891D02*
D03*
X565800D02*
D03*
X581400Y201709D02*
D03*
X344872Y156000D02*
D03*
X348200Y240964D02*
D03*
X338200Y211436D02*
D03*
D33*
X650000Y336300D02*
D03*
Y351900D02*
D03*
Y367500D02*
D03*
Y383100D02*
D03*
Y398700D02*
D03*
Y414300D02*
D03*
Y429900D02*
D03*
Y445500D02*
D03*
X650200Y186700D02*
D03*
Y202300D02*
D03*
Y217900D02*
D03*
Y233500D02*
D03*
Y249100D02*
D03*
Y264700D02*
D03*
Y280300D02*
D03*
Y295900D02*
D03*
X650000Y585900D02*
D03*
Y570300D02*
D03*
Y554700D02*
D03*
Y539100D02*
D03*
Y523500D02*
D03*
Y507900D02*
D03*
Y492300D02*
D03*
Y476700D02*
D03*
D34*
Y461100D02*
D03*
X650200Y311500D02*
D03*
X650000Y601500D02*
D03*
D35*
X508300Y578674D02*
D03*
X506926Y315974D02*
D03*
D36*
X508300Y570800D02*
D03*
Y562926D02*
D03*
Y555052D02*
D03*
X516174Y578674D02*
D03*
Y570800D02*
D03*
Y562926D02*
D03*
Y555052D02*
D03*
X506926Y308100D02*
D03*
Y300226D02*
D03*
Y292352D02*
D03*
X514800Y315974D02*
D03*
Y308100D02*
D03*
Y300226D02*
D03*
Y292352D02*
D03*
D37*
X590900Y636800D02*
D03*
X510200Y180400D02*
D03*
X541400D02*
D03*
X557000D02*
D03*
X525800D02*
D03*
X620400Y468500D02*
D03*
X628200Y201700D02*
D03*
X608400Y156000D02*
D03*
X592800D02*
D03*
X606500Y636800D02*
D03*
X592800Y499200D02*
D03*
Y468000D02*
D03*
Y436800D02*
D03*
Y312000D02*
D03*
Y343200D02*
D03*
Y280800D02*
D03*
Y530400D02*
D03*
Y561600D02*
D03*
Y592800D02*
D03*
X312000Y234000D02*
D03*
Y202800D02*
D03*
X628200Y186100D02*
D03*
D38*
X597000Y201709D02*
D03*
X565800D02*
D03*
X581400Y242891D02*
D03*
D39*
X403928Y156000D02*
D03*
D40*
X417752Y282000D02*
D03*
X324248D02*
D03*
D41*
X454300Y174600D02*
D03*
X560700Y439600D02*
D03*
D42*
X454300Y164600D02*
D03*
X484300Y174600D02*
D03*
Y164600D02*
D03*
X550700Y439600D02*
D03*
X540700D02*
D03*
X530700D02*
D03*
X520700D02*
D03*
D43*
X381409Y227000D02*
D03*
X422591Y185500D02*
D03*
D44*
Y227000D02*
D03*
X381409Y185500D02*
D03*
X312000Y218400D02*
D03*
D45*
X439000Y246500D02*
D03*
X364000D02*
D03*
X439500Y206500D02*
D03*
X364500D02*
D03*
D46*
X439500Y518100D02*
D03*
X429500D02*
D03*
X419500D02*
D03*
X409500D02*
D03*
X399500D02*
D03*
X389500D02*
D03*
X379500D02*
D03*
X439500Y488100D02*
D03*
X429500D02*
D03*
X419500D02*
D03*
X409500D02*
D03*
X399500D02*
D03*
X389500D02*
D03*
D47*
X379500D02*
D03*
D48*
X526200Y297300D02*
D03*
X538200Y374400D02*
D03*
X393900Y432900D02*
D03*
X304200D02*
D03*
X335400D02*
D03*
X428000Y463500D02*
D03*
X415000D02*
D03*
X488000Y428000D02*
D03*
X538200Y390000D02*
D03*
X495300Y475800D02*
D03*
X514800Y420000D02*
D03*
X351100Y496200D02*
D03*
X479700Y518700D02*
D03*
Y479700D02*
D03*
X374400Y370500D02*
D03*
X565500Y265200D02*
D03*
X373600Y471800D02*
D03*
X402900Y412900D02*
D03*
X343900Y466600D02*
D03*
X565500Y273000D02*
D03*
X493200Y277700D02*
D03*
X527300Y506900D02*
D03*
X538300Y502400D02*
D03*
X416200Y404700D02*
D03*
X494900Y377400D02*
D03*
X442000Y448400D02*
D03*
X440800Y421100D02*
D03*
D49*
X681000Y150000D02*
D03*
X682000Y650000D02*
D03*
X300500Y649500D02*
D03*
X301000Y150000D02*
D03*
D50*
X312000Y249600D02*
D03*
Y187200D02*
D03*
X575300Y636700D02*
D03*
X622100D02*
D03*
D51*
X524100Y216800D02*
D03*
X459000Y594500D02*
D03*
D52*
X459800Y629700D02*
D03*
X503300Y243700D02*
D03*
D53*
X490900Y286157D02*
G03*
X490197Y287854I-2400J0D01*
G01*
X497100Y277700D02*
G03*
X490926Y280868I-3900J0D01*
G01*
X490900Y286157D02*
G03*
X490197Y287854I-2400J0D01*
G01*
X490060Y275387D02*
G03*
X497100Y277700I3140J2313D01*
G01*
X489003Y276003D02*
G03*
X490060Y275387I1697J1697D01*
G01*
X486100Y279900D02*
G03*
X486803Y278203I2400J0D01*
G01*
X486100Y279900D02*
G03*
X486803Y278203I2400J0D01*
G01*
X489003Y276003D02*
G03*
X490060Y275387I1697J1697D01*
G01*
X488653Y174600D02*
G03*
X488653Y174600I-4353J0D01*
G01*
X582400Y366850D02*
G03*
X584550Y364700I2150J0D01*
G01*
X535397Y327703D02*
G03*
X536100Y329400I-1697J1697D01*
G01*
X535397Y327703D02*
G03*
X536100Y329400I-1697J1697D01*
G01*
X571300Y269100D02*
G03*
X570741Y270446I-1900J0D01*
G01*
X569252Y271935D02*
G03*
X569400Y273000I-3752J1065D01*
G01*
X571300Y269100D02*
G03*
X570744Y270444I-1900J0D01*
G01*
X572100Y266157D02*
G03*
X571544Y267500I-1900J0D01*
G01*
X572100Y266157D02*
G03*
X571541Y267503I-1900J0D01*
G01*
X563600Y254289D02*
G03*
X564156Y252945I1900J0D01*
G01*
X563600Y254289D02*
G03*
X564159Y252942I1900J0D01*
G01*
X569400Y273000D02*
G03*
X564267Y269300I-3900J0D01*
G01*
X585337Y237554D02*
G03*
X586737Y238953I0J1400D01*
G01*
X576064Y238910D02*
G03*
X577463Y237554I1399J44D01*
G01*
X585043Y205609D02*
G03*
X585043Y197809I-3643J-3900D01*
G01*
X569548Y246691D02*
G03*
X569333Y238891I-3748J-3800D01*
G01*
X570018Y247084D02*
G03*
X570591Y246691I1343J1343D01*
G01*
X571137Y205646D02*
G03*
X569737Y207047I-1400J0D01*
G01*
X570015Y247087D02*
G03*
X570591Y246691I1346J1341D01*
G01*
X569737Y196372D02*
G03*
X571137Y197772I0J1400D01*
G01*
X561863Y207047D02*
G03*
X560463Y205646I0J-1400D01*
G01*
Y197772D02*
G03*
X561863Y196372I1400J0D01*
G01*
X528232Y353068D02*
G03*
X527529Y351371I1697J-1697D01*
G01*
X528232Y353068D02*
G03*
X527529Y351371I1697J-1697D01*
G01*
X526103Y331597D02*
G03*
X525400Y329900I1697J-1697D01*
G01*
X526103Y331597D02*
G03*
X525400Y329900I1697J-1697D01*
G01*
X518759Y315974D02*
G03*
X510885Y316563I-3959J0D01*
G01*
X518581Y314800D02*
G03*
X518759Y315974I-3781J1174D01*
G01*
X510885Y318533D02*
G03*
X509485Y319933I-1400J0D01*
G01*
X504367D02*
G03*
X502967Y318533I0J-1400D01*
G01*
X518759Y300226D02*
G03*
X515996Y304000I-3959J0D01*
G01*
X515217Y296289D02*
G03*
X518759Y300226I-417J3937D01*
G01*
X506337Y312015D02*
G03*
X506509Y304163I589J-3915D01*
G01*
X502967Y313415D02*
G03*
X504367Y312015I1400J0D01*
G01*
X506509Y304163D02*
G03*
X506509Y296289I417J-3937D01*
G01*
X525400Y301117D02*
G03*
X523247Y294752I800J-3817D01*
G01*
X533097Y292903D02*
G03*
X533800Y294600I-1697J1697D01*
G01*
X533097Y292903D02*
G03*
X533800Y294600I-1697J1697D01*
G01*
X529152Y289952D02*
G03*
X530849Y290655I0J2400D01*
G01*
X529152Y289952D02*
G03*
X530849Y290655I0J2400D01*
G01*
X517949Y294752D02*
G03*
X515217Y296289I-3149J-2400D01*
G01*
X506509D02*
G03*
X510863Y291935I417J-3937D01*
G01*
D02*
G03*
X517949Y289952I3937J417D01*
G01*
X517700Y194500D02*
G03*
X516822Y194400I0J-3900D01*
G01*
X517700Y194500D02*
G03*
X516822Y194400I0J-3900D01*
G01*
X541964Y501064D02*
G03*
X542200Y502400I-3664J1336D01*
G01*
X557100Y485100D02*
G03*
X556511Y486517I-2000J0D01*
G01*
X557100Y485100D02*
G03*
X556514Y486514I-2000J0D01*
G01*
X550700Y482650D02*
G03*
X548550Y484800I-2150J0D01*
G01*
X544050D02*
G03*
X541900Y482650I0J-2150D01*
G01*
X528400Y531000D02*
G03*
X526000Y533400I-2400J0D01*
G01*
Y517600D02*
G03*
X528400Y520000I0J2400D01*
G01*
X531200Y506900D02*
G03*
X523650Y508274I-3900J0D01*
G01*
X542200Y502400D02*
G03*
X538835Y498537I-3900J0D01*
G01*
X540700Y480400D02*
G03*
X535389Y484705I-4400J0D01*
G01*
X529700Y503826D02*
G03*
X531200Y506900I-2400J3074D01*
G01*
X530700Y480400D02*
G03*
X528950Y483913I-4400J0D01*
G01*
X523650D02*
G03*
X530700Y480400I2650J-3512D01*
G01*
X548550Y476000D02*
G03*
X550700Y478150I0J2150D01*
G01*
X556511Y468583D02*
G03*
X557100Y470000I-1411J1417D01*
G01*
X556514Y468586D02*
G03*
X557100Y470000I-1414J1414D01*
G01*
X551789Y469517D02*
G03*
X551200Y468100I1411J-1417D01*
G01*
X551786Y469514D02*
G03*
X551200Y468100I1414J-1414D01*
G01*
X565053Y442553D02*
G03*
X563653Y443953I-1400J0D01*
G01*
X557747D02*
G03*
X556347Y442553I0J-1400D01*
G01*
Y436647D02*
G03*
X557747Y435247I1400J0D01*
G01*
X563653D02*
G03*
X565053Y436647I0J1400D01*
G01*
X554838Y440952D02*
G03*
X555200Y442100I-1637J1148D01*
G01*
X551200Y443924D02*
G03*
X555053Y439600I-500J-4324D01*
G01*
X554838Y440952D02*
G03*
X555200Y442100I-1637J1148D01*
G01*
X555053Y439600D02*
G03*
X554838Y440952I-4353J0D01*
G01*
X541900Y478150D02*
G03*
X544050Y476000I2150J0D01*
G01*
X531995Y481311D02*
G03*
X540700Y480400I4305J-911D01*
G01*
Y451600D02*
G03*
X540700Y451600I-4400J0D01*
G01*
X535053Y439600D02*
G03*
X527779Y436373I-4353J0D01*
G01*
X533099Y435968D02*
G03*
X535053Y439600I-2399J3632D01*
G01*
X530700Y451600D02*
G03*
X530700Y451600I-4400J0D01*
G01*
X520000Y533400D02*
G03*
X517600Y531000I0J-2400D01*
G01*
X517400Y551288D02*
G03*
X517984Y551531I-1226J3765D01*
G01*
X517600Y520000D02*
G03*
X518350Y518257I2400J0D01*
G01*
Y504000D02*
G03*
X519130Y502123I2650J0D01*
G01*
X521400Y488054D02*
G03*
X522176Y486180I2650J0D01*
G01*
X516697Y508003D02*
G03*
X517400Y509700I-1697J1697D01*
G01*
X516697Y508003D02*
G03*
X517400Y509700I-1697J1697D01*
G01*
X518350Y504000D02*
G03*
X519126Y502126I2650J0D01*
G01*
X507711Y574715D02*
G03*
X507883Y566863I589J-3915D01*
G01*
D02*
G03*
X507883Y558989I417J-3937D01*
G01*
D02*
G03*
X508829Y551128I417J-3937D01*
G01*
X505741Y582633D02*
G03*
X504341Y581233I0J-1400D01*
G01*
Y576115D02*
G03*
X505741Y574715I1400J0D01*
G01*
X505103Y508497D02*
G03*
X504400Y506800I1697J-1697D01*
G01*
X505103Y508497D02*
G03*
X504400Y506800I1697J-1697D01*
G01*
X450900Y490700D02*
G03*
X450197Y492397I-2400J0D01*
G01*
X450900Y490700D02*
G03*
X450197Y492397I-2400J0D01*
G01*
X521400Y488054D02*
G03*
X522180Y486177I2650J0D01*
G01*
X520700Y480400D02*
G03*
X512700Y482930I-4400J0D01*
G01*
Y477870D02*
G03*
X520700Y480400I3600J2530D01*
G01*
X495151Y471903D02*
G03*
X499200Y475800I149J3897D01*
G01*
X520700Y451600D02*
G03*
X512700Y454130I-4400J0D01*
G01*
Y449070D02*
G03*
X520700Y451600I3600J2530D01*
G01*
X525053Y439600D02*
G03*
X525053Y439600I-4353J0D01*
G01*
X499200Y475800D02*
G03*
X491403Y475651I-3900J0D01*
G01*
X488629Y472877D02*
G03*
X487850Y471000I1870J-1877D01*
G01*
X488626Y472874D02*
G03*
X487850Y471000I1874J-1874D01*
G01*
X446100Y454800D02*
G03*
X446803Y453103I2400J0D01*
G01*
X446100Y454800D02*
G03*
X446803Y453103I2400J0D01*
G01*
X445900Y448400D02*
G03*
X441435Y452259I-3900J0D01*
G01*
X466000Y442175D02*
G03*
X463600Y444575I-2400J0D01*
G01*
X466000Y442175D02*
G03*
X463600Y444575I-2400J0D01*
G01*
X459428Y440478D02*
G03*
X461125Y439775I1697J1697D01*
G01*
X459428Y440478D02*
G03*
X461125Y439775I1697J1697D01*
G01*
X655139Y405281D02*
G03*
X651968Y406005I-3171J-6582D01*
G01*
X648032D02*
G03*
X648032Y391394I0J-7305D01*
G01*
X532397Y434203D02*
G03*
X533100Y435900I-1697J1697D01*
G01*
X525236Y405600D02*
G03*
X524533Y407297I-2400J0D01*
G01*
X525236Y405600D02*
G03*
X524533Y407297I-2400J0D01*
G01*
X651968Y391394D02*
G03*
X654694Y391922I0J7305D01*
G01*
X654627Y389905D02*
G03*
X651968Y390406I-2658J-6805D01*
G01*
X648032D02*
G03*
X648032Y375795I0J-7305D01*
G01*
X593200Y389100D02*
G03*
X588800Y393500I-4400J0D01*
G01*
Y384700D02*
G03*
X593200Y389100I0J4400D01*
G01*
Y379100D02*
G03*
X588800Y383500I-4400J0D01*
G01*
X651968Y375795D02*
G03*
X654168Y376133I0J7305D01*
G01*
X654113Y374484D02*
G03*
X651968Y374805I-2144J-6984D01*
G01*
X648032D02*
G03*
X641665Y363918I0J-7305D01*
G01*
X593200Y371350D02*
G03*
X591050Y373500I-2150J0D01*
G01*
X588800Y374700D02*
G03*
X593200Y379100I0J4400D01*
G01*
X591050Y364700D02*
G03*
X593200Y366850I0J2150D01*
G01*
X586800Y393500D02*
G03*
X586800Y384700I0J-4400D01*
G01*
Y383500D02*
G03*
X586800Y374700I0J-4400D01*
G01*
X525000Y391026D02*
G03*
X525236Y392064I-2164J1038D01*
G01*
X525000Y391026D02*
G03*
X525236Y392064I-2164J1038D01*
G01*
X584550Y373500D02*
G03*
X582400Y371350I0J-2150D01*
G01*
X536100Y370500D02*
G03*
X535397Y372197I-2400J0D01*
G01*
X536100Y370500D02*
G03*
X535397Y372197I-2400J0D01*
G01*
X582400Y366850D02*
G03*
X584550Y364700I2150J0D01*
G01*
X504400Y432700D02*
G03*
X504900Y431234I2400J0D01*
G01*
X518700Y420000D02*
G03*
X518671Y420477I-3900J0D01*
G01*
X515639Y416191D02*
G03*
X518700Y420000I-839J3809D01*
G01*
X515277Y423871D02*
G03*
X512700Y423286I-477J-3871D01*
G01*
X504900Y416893D02*
G03*
X505603Y415196I2400J0D01*
G01*
X504400Y432700D02*
G03*
X504900Y431234I2400J0D01*
G01*
X492374Y428626D02*
G03*
X493150Y430500I-1874J1874D01*
G01*
X492371Y428623D02*
G03*
X493150Y430500I-1870J1877D01*
G01*
X487850Y431897D02*
G03*
X491900Y428000I150J-3897D01*
G01*
X504900Y416893D02*
G03*
X505603Y415196I2400J0D01*
G01*
X488775Y405725D02*
G03*
X488072Y407422I-2400J0D01*
G01*
X488775Y405725D02*
G03*
X488072Y407422I-2400J0D01*
G01*
X461200Y428500D02*
G03*
X461903Y426803I2400J0D01*
G01*
X461200Y428500D02*
G03*
X461903Y426803I2400J0D01*
G01*
X467200Y410400D02*
G03*
X457200Y413228I-5400J0D01*
G01*
Y413400D02*
G03*
X454800Y415800I-2400J0D01*
G01*
X448800D02*
G03*
X446400Y413400I0J-2400D01*
G01*
X517436Y394109D02*
G03*
X517200Y393071I2164J-1038D01*
G01*
X517436Y394109D02*
G03*
X517200Y393071I2164J-1038D01*
G01*
X497300Y393100D02*
G03*
X494900Y395500I-2400J0D01*
G01*
X497300Y393100D02*
G03*
X494900Y395500I-2400J0D01*
G01*
X483975Y393100D02*
G03*
X486375Y390700I2400J0D01*
G01*
X483975Y393100D02*
G03*
X486375Y390700I2400J0D01*
G01*
X492500Y380474D02*
G03*
X498800Y377400I2400J-3074D01*
G01*
X517200Y380357D02*
G03*
X517903Y378660I2400J0D01*
G01*
X517200Y380357D02*
G03*
X517903Y378660I2400J0D01*
G01*
X498800Y377400D02*
G03*
X497300Y380474I-3900J0D01*
G01*
X457200Y402572D02*
G03*
X467200Y405400I4600J2828D01*
G01*
X454800Y400000D02*
G03*
X457200Y402400I0J2400D01*
G01*
X467100Y390600D02*
G03*
X457100Y393428I-5400J0D01*
G01*
X446400Y402400D02*
G03*
X448800Y400000I2400J0D01*
G01*
X457100Y393600D02*
G03*
X454700Y396000I-2400J0D01*
G01*
X448700D02*
G03*
X446300Y393600I0J-2400D01*
G01*
X457100Y382772D02*
G03*
X467100Y385600I4600J2828D01*
G01*
X454700Y380200D02*
G03*
X457100Y382600I0J2400D01*
G01*
X458397Y369297D02*
G03*
X456700Y370000I-1697J-1697D01*
G01*
X458397Y369297D02*
G03*
X456700Y370000I-1697J-1697D01*
G01*
X446300Y382600D02*
G03*
X448700Y380200I2400J0D01*
G01*
X432997Y527997D02*
G03*
X431300Y528700I-1697J-1697D01*
G01*
X432997Y527997D02*
G03*
X431300Y528700I-1697J-1697D01*
G01*
X443853Y518100D02*
G03*
X438629Y522365I-4353J0D01*
G01*
X433853Y518100D02*
G03*
X433853Y518100I-4353J0D01*
G01*
X423853D02*
G03*
X415857Y515717I-4353J0D01*
G01*
X413853Y518100D02*
G03*
X413853Y518100I-4353J0D01*
G01*
X435235Y518971D02*
G03*
X443853Y518100I4265J-871D01*
G01*
X440897Y501697D02*
G03*
X439200Y502400I-1697J-1697D01*
G01*
X440897Y501697D02*
G03*
X439200Y502400I-1697J-1697D01*
G01*
X420657Y513904D02*
G03*
X423853Y518100I-1157J4196D01*
G01*
X429000Y502400D02*
G03*
X427303Y501697I0J-2400D01*
G01*
X429000Y502400D02*
G03*
X427303Y501697I0J-2400D01*
G01*
X431900Y484469D02*
G03*
X433853Y488100I-2400J3631D01*
G01*
D02*
G03*
X427100Y484469I-4353J0D01*
G01*
X423853Y488100D02*
G03*
X423034Y490640I-4353J0D01*
G01*
X419954Y509860D02*
G03*
X420657Y511557I-1697J1697D01*
G01*
X419954Y509860D02*
G03*
X420657Y511557I-1697J1697D01*
G01*
X409900Y500800D02*
G03*
X411597Y501503I0J2400D01*
G01*
X409900Y500800D02*
G03*
X411597Y501503I0J2400D01*
G01*
X417665Y492047D02*
G03*
X423853Y488100I1835J-3947D01*
G01*
X413765Y487229D02*
G03*
X413853Y488100I-4265J871D01*
G01*
D02*
G03*
X410371Y483835I-4353J0D01*
G01*
X403853Y518100D02*
G03*
X403853Y518100I-4353J0D01*
G01*
X393853D02*
G03*
X393853Y518100I-4353J0D01*
G01*
X374300Y528700D02*
G03*
X372603Y527997I0J-2400D01*
G01*
X374300Y528700D02*
G03*
X372603Y527997I0J-2400D01*
G01*
X383853Y518100D02*
G03*
X383853Y518100I-4353J0D01*
G01*
Y491053D02*
G03*
X382453Y492453I-1400J0D01*
G01*
X403853Y488100D02*
G03*
X403853Y488100I-4353J0D01*
G01*
X406697Y479297D02*
G03*
X405000Y480000I-1697J-1697D01*
G01*
X406697Y479297D02*
G03*
X405000Y480000I-1697J-1697D01*
G01*
X391900Y484469D02*
G03*
X393853Y488100I-2400J3631D01*
G01*
D02*
G03*
X387100Y484469I-4353J0D01*
G01*
X382453Y483747D02*
G03*
X383853Y485147I0J1400D01*
G01*
X375147D02*
G03*
X376547Y483747I1400J0D01*
G01*
X387100Y482400D02*
G03*
X387803Y480703I2400J0D01*
G01*
X387100Y482400D02*
G03*
X387803Y480703I2400J0D01*
G01*
X375200Y505600D02*
G03*
X373503Y504897I0J-2400D01*
G01*
X375200Y505600D02*
G03*
X373503Y504897I0J-2400D01*
G01*
X376547Y492453D02*
G03*
X375147Y491053I0J-1400D01*
G01*
X329903Y485297D02*
G03*
X329200Y483600I1697J-1697D01*
G01*
X329903Y485297D02*
G03*
X329200Y483600I1697J-1697D01*
G01*
X439200Y471900D02*
G03*
X438497Y473597I-2400J0D01*
G01*
X439200Y471900D02*
G03*
X438497Y473597I-2400J0D01*
G01*
X427100Y479200D02*
G03*
X427803Y477503I2400J0D01*
G01*
X427100Y479200D02*
G03*
X427803Y477503I2400J0D01*
G01*
X431400Y468600D02*
G03*
X430697Y470297I-2400J0D01*
G01*
X431400Y468600D02*
G03*
X430697Y470297I-2400J0D01*
G01*
X426303Y467318D02*
G03*
X425903Y466788I1697J-1697D01*
G01*
X426303Y467318D02*
G03*
X425903Y466788I1697J-1697D01*
G01*
D02*
G03*
X431900Y463500I2097J-3288D01*
G01*
X431218Y465704D02*
G03*
X431400Y466621I-2218J918D01*
G01*
X431218Y465704D02*
G03*
X431400Y466621I-2218J918D01*
G01*
X431900Y463500D02*
G03*
X431218Y465704I-3900J0D01*
G01*
X417400Y467600D02*
G03*
X416697Y469297I-2400J0D01*
G01*
X417400Y467600D02*
G03*
X416697Y469297I-2400J0D01*
G01*
X392603Y475903D02*
G03*
X394300Y475200I1697J1697D01*
G01*
X392603Y475903D02*
G03*
X394300Y475200I1697J1697D01*
G01*
X412600Y466574D02*
G03*
X418900Y463500I2400J-3074D01*
G01*
D02*
G03*
X417400Y466574I-3900J0D01*
G01*
X438119Y448787D02*
G03*
X445900Y448400I3881J-387D01*
G01*
X434400Y453500D02*
G03*
X435103Y451803I2400J0D01*
G01*
X434400Y453500D02*
G03*
X435103Y451803I2400J0D01*
G01*
X399826Y410500D02*
G03*
X406800Y412900I3074J2400D01*
G01*
D02*
G03*
X399826Y415300I-3900J0D01*
G01*
X426397Y372197D02*
G03*
X424700Y372900I-1697J-1697D01*
G01*
X426397Y372197D02*
G03*
X424700Y372900I-1697J-1697D01*
G01*
X425903Y365903D02*
G03*
X427600Y365200I1697J1697D01*
G01*
X425903Y365903D02*
G03*
X427600Y365200I1697J1697D01*
G01*
X396300Y451500D02*
G03*
X395597Y453197I-2400J0D01*
G01*
X397800Y432900D02*
G03*
X396300Y435974I-3900J0D01*
G01*
Y451500D02*
G03*
X395597Y453197I-2400J0D01*
G01*
X391500Y435974D02*
G03*
X397800Y432900I2400J-3074D01*
G01*
X377471Y471323D02*
G03*
X377500Y471800I-3871J477D01*
G01*
D02*
G03*
X374077Y467929I-3900J0D01*
G01*
X342203Y473597D02*
G03*
X341500Y471900I1697J-1697D01*
G01*
X347800Y466600D02*
G03*
X346300Y469674I-3900J0D01*
G01*
X342203Y473597D02*
G03*
X341500Y471900I1697J-1697D01*
G01*
Y469674D02*
G03*
X347800Y466600I2400J-3074D01*
G01*
X329200Y460800D02*
G03*
X329903Y459103I2400J0D01*
G01*
X329200Y460800D02*
G03*
X329903Y459103I2400J0D01*
G01*
X388603Y411203D02*
G03*
X390300Y410500I1697J1697D01*
G01*
X388603Y411203D02*
G03*
X390300Y410500I1697J1697D01*
G01*
X378897Y437997D02*
G03*
X377200Y438700I-1697J-1697D01*
G01*
X378897Y437997D02*
G03*
X377200Y438700I-1697J-1697D01*
G01*
X387400Y428500D02*
G03*
X386697Y430197I-2400J0D01*
G01*
X387400Y428500D02*
G03*
X386697Y430197I-2400J0D01*
G01*
X382600Y418200D02*
G03*
X383303Y416503I2400J0D01*
G01*
X382600Y418200D02*
G03*
X383303Y416503I2400J0D01*
G01*
X377474Y372900D02*
G03*
X377474Y368100I-3074J-2400D01*
G01*
X354403Y434603D02*
G03*
X356100Y433900I1697J1697D01*
G01*
X354403Y434603D02*
G03*
X356100Y433900I1697J1697D01*
G01*
X490900Y286000D02*
X499202D01*
X490900Y284000D02*
X499202D01*
X490052Y288000D02*
X499202D01*
X496350Y280000D02*
X499202D01*
X490900Y282000D02*
X499202D01*
X482052Y296000D02*
X499202D01*
X484052Y294000D02*
X499202D01*
X480052Y298000D02*
X499202D01*
X488052Y290000D02*
X499202D01*
X486052Y292000D02*
X499202D01*
X496710Y276000D02*
X499202D01*
X494433Y274000D02*
X499202D01*
X497088Y278000D02*
X499202D01*
X478600Y224000D02*
X499202D01*
X478600Y226000D02*
X499202D01*
X478600Y220000D02*
X499202D01*
X478600Y218000D02*
X499202D01*
X478600Y222000D02*
X499202D01*
X478600Y214000D02*
X499202D01*
X478600Y216000D02*
X499202D01*
X494000Y281517D02*
Y363706D01*
X490000Y288052D02*
Y363601D01*
X496000Y280415D02*
Y363759D01*
X492000Y281411D02*
Y363654D01*
X484000Y294052D02*
Y363442D01*
X482000Y296052D02*
Y363390D01*
X480000Y298052D02*
Y363337D01*
X488000Y290052D02*
Y363548D01*
X486000Y292052D02*
Y363495D01*
X490900Y280894D02*
Y286157D01*
X486100Y279900D02*
Y285163D01*
X486803Y278203D02*
X489003Y276003D01*
X478600Y210000D02*
X499202D01*
X478600Y208000D02*
X499202D01*
X478600Y212000D02*
X499202D01*
X499202Y363844D02*
X499202Y161900D01*
X498000D02*
Y363812D01*
X478600Y204000D02*
X499202D01*
X478600Y202000D02*
X499202D01*
X478600Y206000D02*
X499202D01*
X478600Y180000D02*
X499202D01*
X478600Y194000D02*
X499202D01*
X488421Y176000D02*
X499202D01*
X488611Y174000D02*
X499202D01*
X487018Y178000D02*
X499202D01*
X478600Y170000D02*
X499202D01*
X487791Y172000D02*
X499202D01*
X478600Y166000D02*
X499202D01*
X478600Y164000D02*
X499202D01*
X478600Y168000D02*
X499202D01*
X478600Y161900D02*
X499202Y161900D01*
X478600Y162000D02*
X499202D01*
X490000Y161900D02*
Y275404D01*
X492000Y161900D02*
Y273989D01*
X488000Y176893D02*
Y277006D01*
X496000Y161900D02*
Y274985D01*
X494000Y161900D02*
Y273883D01*
X484000Y178942D02*
Y287263D01*
X486000Y178607D02*
Y285263D01*
X482000Y178296D02*
Y289263D01*
X480000Y175276D02*
Y291263D01*
X482000Y161900D02*
Y170905D01*
X484000Y161900D02*
Y170258D01*
X480000Y161900D02*
Y173924D01*
X488000Y161900D02*
Y172307D01*
X486000Y161900D02*
Y170593D01*
X478600Y178000D02*
X481582D01*
X478600Y176000D02*
X480178D01*
X478600Y172000D02*
X480809D01*
X478600Y174000D02*
X479989D01*
X478600Y352000D02*
X499202D01*
X478600Y350000D02*
X499202D01*
X478600Y354000D02*
X499202D01*
X478600Y346000D02*
X499202D01*
X478600Y348000D02*
X499202D01*
X478600Y362000D02*
X499202D01*
X478600Y360000D02*
X499202D01*
X478600Y363300D02*
X499202Y363844D01*
X478600Y356000D02*
X499202D01*
X478600Y358000D02*
X499202D01*
X478600Y332000D02*
X499202D01*
X478600Y330000D02*
X499202D01*
X478600Y334000D02*
X499202D01*
X478600Y326000D02*
X499202D01*
X478600Y328000D02*
X499202D01*
X478600Y342000D02*
X499202D01*
X478600Y340000D02*
X499202D01*
X478600Y344000D02*
X499202D01*
X478600Y336000D02*
X499202D01*
X478600Y338000D02*
X499202D01*
X478600Y314000D02*
X499202D01*
X478600Y312000D02*
X499202D01*
X478600Y316000D02*
X499202D01*
X478600Y308000D02*
X499202D01*
X478600Y310000D02*
X499202D01*
X478600Y322000D02*
X499202D01*
X478600Y320000D02*
X499202D01*
X478600Y324000D02*
X499202D01*
X478600Y318000D02*
X499202D01*
X478600Y299451D02*
Y363300D01*
Y290000D02*
X481263D01*
X478600Y288000D02*
X483263D01*
X478600Y292000D02*
X479263D01*
X478600Y292663D02*
X486100Y285163D01*
X478600Y286000D02*
X485263D01*
X478600Y304000D02*
X499202D01*
X478600Y302000D02*
X499202D01*
X478600Y306000D02*
X499202D01*
X478600Y300000D02*
X499202D01*
X478600Y299451D02*
X490197Y287854D01*
X478600Y250000D02*
X499202D01*
X478600Y248000D02*
X499202D01*
X478600Y252000D02*
X499202D01*
X478600Y244000D02*
X499202D01*
X478600Y246000D02*
X499202D01*
X478600Y260000D02*
X499202D01*
X478600Y258000D02*
X499202D01*
X478600Y262000D02*
X499202D01*
X478600Y254000D02*
X499202D01*
X478600Y256000D02*
X499202D01*
X478600Y188000D02*
X499202D01*
X478600Y186000D02*
X499202D01*
X478600Y190000D02*
X499202D01*
X478600Y182000D02*
X499202D01*
X478600Y184000D02*
X499202D01*
X478600Y240000D02*
X499202D01*
X478600Y238000D02*
X499202D01*
X478600Y242000D02*
X499202D01*
X478600Y192000D02*
X499202D01*
X478600Y236000D02*
X499202D01*
X478600Y274000D02*
X491967D01*
X478600Y272000D02*
X499202D01*
X478600Y276000D02*
X489006D01*
X478600Y268000D02*
X499202D01*
X478600Y270000D02*
X499202D01*
X478600Y282000D02*
X486100D01*
X478600Y280000D02*
X486100D01*
X478600Y284000D02*
X486100D01*
X478600Y278000D02*
X487006D01*
X478600Y292663D02*
X478600Y161900D01*
X478600Y228000D02*
X499202D01*
X478600Y200000D02*
X499202D01*
X478600Y230000D02*
X499202D01*
X478600Y196000D02*
X499202D01*
X478600Y198000D02*
X499202D01*
X478600Y264000D02*
X499202D01*
X478600Y266000D02*
X499202D01*
X478600Y232000D02*
X499202D01*
X478600Y234000D02*
X499202D01*
X590295Y361427D02*
Y364700D01*
X590000Y361427D02*
Y364700D01*
X584550D02*
X590295D01*
X582400Y366850D02*
Y368000D01*
X586000Y361427D02*
Y364700D01*
X588000Y361427D02*
Y364700D01*
X584000Y361427D02*
Y364772D01*
X577200Y361427D02*
X590295D01*
X580000D02*
Y368000D01*
X578000Y361427D02*
Y368000D01*
X582000Y361427D02*
Y368000D01*
X536100Y364000D02*
X590295D01*
X536100Y366000D02*
X582575D01*
X536100Y362000D02*
X590295D01*
X576654Y361319D02*
X577200Y361427D01*
X536100Y368000D02*
X582400Y368000D01*
X576191Y361009D02*
X576654Y361319D01*
X536100Y346000D02*
X576273D01*
X536100Y352000D02*
X576273D01*
X536100Y342000D02*
X576273D01*
X536100Y356000D02*
X576273D01*
X536100Y358000D02*
X576273D01*
X536100Y354000D02*
X576273D01*
X572100Y262000D02*
X576523D01*
X572100Y264000D02*
X576523D01*
X572100Y260000D02*
X576523D01*
X576273Y293783D02*
X576523Y273141D01*
X571300Y268000D02*
X576523D01*
X572100Y266000D02*
X576523D01*
X577463Y258458D02*
X590295Y253797D01*
X572100Y254000D02*
X589737D01*
X590000Y252528D02*
Y253904D01*
X576523Y259800D02*
Y273141D01*
X572100Y258000D02*
X578724D01*
X572100Y256000D02*
X584231D01*
X536100Y332000D02*
X576273D01*
X536100Y334000D02*
X576273D01*
X536100Y330000D02*
X576273D01*
X536100Y338000D02*
X576273D01*
X536100Y340000D02*
X576273D01*
X536100Y336000D02*
X576273D01*
X569270Y272000D02*
X576523D01*
X569270Y274000D02*
X576512D01*
X571073Y270000D02*
X576523D01*
X535649Y328000D02*
X576273D01*
X533800Y326000D02*
X576273D01*
X567992Y276000D02*
X576488D01*
X575881Y359454D02*
X576191Y358991D01*
X575881Y360546D02*
X576191Y361009D01*
X576273Y293800D02*
Y358909D01*
X576000Y360724D02*
Y368000D01*
X575773Y360000D02*
X575881Y360546D01*
X575773Y360000D02*
X575881Y359454D01*
X570000Y271187D02*
Y368000D01*
X568000Y275993D02*
Y368000D01*
X572000Y266765D02*
Y368000D01*
X564000Y276600D02*
Y368000D01*
X562000Y274721D02*
Y368000D01*
X566000Y276868D02*
Y368000D01*
X536100Y348000D02*
X576273D01*
X536100Y350000D02*
X576273D01*
X536100Y344000D02*
X576273D01*
X536100Y360000D02*
X575773D01*
X536100Y329400D02*
Y368000D01*
X533800Y322000D02*
X576273D01*
X533800Y324000D02*
X576273D01*
X533800Y320000D02*
X576273D01*
X533800Y326106D02*
X535397Y327703D01*
X533800Y294600D02*
Y326106D01*
X571300Y267744D02*
Y269100D01*
Y267744D02*
X571541Y267503D01*
X569252Y271935D02*
X570741Y270446D01*
X572100Y253487D02*
Y266157D01*
X563600Y254289D02*
Y261800D01*
X533800Y306000D02*
X576273D01*
X533800Y308000D02*
X576273D01*
X533800Y302000D02*
X576273D01*
X533800Y312000D02*
X576273D01*
X533800Y316000D02*
X576273D01*
X533800Y310000D02*
X576273D01*
X533800Y300000D02*
X576273D01*
X561410Y269300D02*
X564267D01*
X562000D02*
Y271280D01*
X561300Y261700D02*
X561410Y269300D01*
X561400Y261800D02*
X563600D01*
X586737Y244000D02*
X590295D01*
X586737Y246000D02*
X590295D01*
X586737Y242000D02*
X590295D01*
Y252528D02*
Y253797D01*
X588000Y252528D02*
Y254631D01*
X586737Y246528D02*
X590295D01*
Y205609D02*
Y246528D01*
X586737Y240000D02*
X590295D01*
X586362Y238000D02*
X590295D01*
X588000Y205609D02*
Y246528D01*
X586737Y238953D02*
Y246528D01*
X590000Y205609D02*
Y246528D01*
X586000Y252528D02*
Y255357D01*
X584000Y252528D02*
Y256084D01*
X573059Y252528D02*
X590295D01*
X580000D02*
Y257537D01*
X578000Y252528D02*
Y258263D01*
X582000Y252528D02*
Y256810D01*
X586000Y205609D02*
Y237720D01*
X576000Y252528D02*
Y359276D01*
X573533Y238891D02*
X576064Y238910D01*
X567937Y238000D02*
X576438D01*
X585043Y205609D02*
X590295D01*
X584574Y206000D02*
X590295D01*
X585043Y197809D02*
X590295D01*
X584000Y206370D02*
Y237554D01*
X582000Y207013D02*
Y237554D01*
X588000Y194400D02*
Y197809D01*
X590000Y194400D02*
Y197809D01*
X586000Y194400D02*
Y197809D01*
X590295Y194400D02*
Y197809D01*
X584000Y194400D02*
Y197049D01*
X580000Y194400D02*
Y196559D01*
X582000Y194400D02*
Y196406D01*
X580000Y206860D02*
Y237554D01*
X577463D02*
X585337D01*
X571092Y206000D02*
X578226D01*
X578000Y205823D02*
Y237554D01*
X571137Y204000D02*
X576580D01*
X571137Y202000D02*
X576071D01*
X569700Y196000D02*
X590295D01*
X569700Y194400D02*
X590295Y194400D01*
X571137Y198000D02*
X577563D01*
X571137Y200000D02*
X576344D01*
X578000Y194400D02*
Y197596D01*
X574000Y252528D02*
Y368000D01*
X572100Y253487D02*
X573059Y252528D01*
X567342Y248000D02*
X569102D01*
X566000Y248224D02*
Y251102D01*
X564000Y247915D02*
Y253123D01*
X568000Y247753D02*
Y249102D01*
X564159Y252942D02*
X570015Y247087D01*
X570000Y246691D02*
Y247102D01*
X560000Y194500D02*
Y368000D01*
X558000Y194500D02*
Y368000D01*
X562000Y246638D02*
Y261800D01*
X542000Y194500D02*
Y368000D01*
X540000Y194500D02*
Y368000D01*
X544000Y194500D02*
Y368000D01*
X538000Y194500D02*
Y368000D01*
X536000Y194500D02*
Y328714D01*
X534000Y194500D02*
Y326306D01*
X554000Y194500D02*
Y368000D01*
X552000Y194500D02*
Y368000D01*
X556000Y194500D02*
Y368000D01*
X548000Y194500D02*
Y368000D01*
X546000Y194500D02*
Y368000D01*
X550000Y194500D02*
Y368000D01*
X571137Y197772D02*
Y205646D01*
X569548Y246691D02*
X570591D01*
X570000Y207021D02*
Y238891D01*
X576000Y194400D02*
Y238909D01*
X574000Y194400D02*
Y238894D01*
X572000Y194400D02*
Y238891D01*
X570000Y194400D02*
Y196397D01*
X569700Y194400D02*
Y196372D01*
X569333Y238891D02*
X573500D01*
X568000Y207047D02*
Y238028D01*
X561863Y207047D02*
X569737D01*
X564000D02*
Y237866D01*
X562000Y207047D02*
Y239143D01*
X566000Y207047D02*
Y237557D01*
X561900Y194500D02*
Y196372D01*
X551600Y194500D02*
X561900D01*
X560463Y197772D02*
Y205646D01*
X528300Y353137D02*
Y368000D01*
X528000Y352800D02*
Y368000D01*
X499006Y346000D02*
X527529D01*
X499012Y344000D02*
X527529D01*
X499025Y340000D02*
X527529D01*
X499019Y342000D02*
X527529D01*
X499031Y338000D02*
X527529D01*
Y333023D02*
Y351371D01*
X526000Y331487D02*
Y368000D01*
X499038Y336000D02*
X527529D01*
X498955Y362000D02*
X528300D01*
X498949Y364000D02*
X528300D01*
X498962Y360000D02*
X528300D01*
X498936Y368000D02*
X528300D01*
X498936Y368000D02*
X528300Y368000D01*
X498943Y366000D02*
X528300D01*
X498974Y356000D02*
X528300D01*
X498968Y358000D02*
X528300D01*
X498981Y354000D02*
X528300D01*
X498993Y350000D02*
X527529D01*
X498987Y352000D02*
X527612D01*
X499000Y348000D02*
X527529D01*
X533800Y318000D02*
X576273D01*
X526103Y331597D02*
X527529Y333023D01*
X533800Y314000D02*
X576273D01*
X523200D02*
X525400D01*
X533800Y304000D02*
X576273D01*
X523200Y310000D02*
X525400D01*
X533800Y298000D02*
X576273D01*
X525400Y301117D02*
Y329900D01*
X523200Y312000D02*
X525400D01*
X523200Y306000D02*
X525400D01*
X499050Y332000D02*
X526506D01*
X499044Y334000D02*
X527529D01*
X499057Y330000D02*
X525402D01*
X499069Y326000D02*
X525400D01*
X499063Y328000D02*
X525400D01*
X499076Y324000D02*
X525400D01*
X519400Y304000D02*
X525400D01*
X518759Y316000D02*
X525400D01*
X518339Y302000D02*
X525400D01*
X499088Y320000D02*
X525400D01*
X499082Y322000D02*
X525400D01*
X518201Y318000D02*
X525400D01*
X518000Y318305D02*
Y368000D01*
X516000Y319747D02*
Y368000D01*
X514000Y319851D02*
Y368000D01*
X512000Y318773D02*
Y368000D01*
X510885Y318000D02*
X511399D01*
X524000Y300520D02*
Y368000D01*
X518581Y314800D02*
X523200D01*
X523200Y306000D02*
X523200Y314800D01*
X522000D02*
Y368000D01*
X520000Y314800D02*
Y368000D01*
X510000Y319835D02*
Y368000D01*
X504367Y319933D02*
X509485D01*
X506000D02*
Y368000D01*
X504000Y319884D02*
Y368000D01*
X508000Y319933D02*
Y368000D01*
X510885Y316563D02*
Y318533D01*
X499095Y318000D02*
X502967D01*
Y313415D02*
Y318533D01*
X499101Y316000D02*
X502967D01*
X499107Y314000D02*
X502967D01*
X523200Y308000D02*
X525400D01*
X519200Y306000D02*
X523200D01*
X515996Y304000D02*
X519400D01*
X504367Y312015D02*
X506337D01*
X504000Y310767D02*
Y312064D01*
X519200Y304200D02*
Y306000D01*
X518753Y300000D02*
X523386D01*
X515996Y304000D02*
X519400D01*
X518074Y298000D02*
X522363D01*
X518000Y302557D02*
Y304000D01*
X499114Y312000D02*
X506245D01*
X499126Y308000D02*
X502968D01*
X499120Y310000D02*
X503453D01*
X499133Y306000D02*
X503570D01*
X504000Y302893D02*
Y305433D01*
X499139Y304000D02*
X505730D01*
X499152Y300000D02*
X502973D01*
X499145Y302000D02*
X503387D01*
X499158Y298000D02*
X503652D01*
X533724Y294000D02*
X576273D01*
X532194Y292000D02*
X576294D01*
X529630Y290000D02*
X576319D01*
X533800Y296000D02*
X576273D01*
X499265Y264000D02*
X561333D01*
X499272Y262000D02*
X561304D01*
X499303Y252000D02*
X565102D01*
X499297Y254000D02*
X563622D01*
X499310Y250000D02*
X567102D01*
X499284Y258000D02*
X563600D01*
X499278Y260000D02*
X563600D01*
X499291Y256000D02*
X563600D01*
X499215Y280000D02*
X576440D01*
X499208Y282000D02*
X576415D01*
X499221Y278000D02*
X576464D01*
X499196Y286000D02*
X576367D01*
X499190Y288000D02*
X576343D01*
X499202Y284000D02*
X576391D01*
X499234Y274000D02*
X561730D01*
X499228Y276000D02*
X563008D01*
X499247Y270000D02*
X563008D01*
X499253Y268000D02*
X561391D01*
X499240Y272000D02*
X561730D01*
X499259Y266000D02*
X561362D01*
X499417Y216000D02*
X590295D01*
X499411Y218000D02*
X590295D01*
X499424Y214000D02*
X590295D01*
X499398Y222000D02*
X590295D01*
X499392Y224000D02*
X590295D01*
X499405Y220000D02*
X590295D01*
X499436Y210000D02*
X590295D01*
X499430Y212000D02*
X590295D01*
X499443Y208000D02*
X590295D01*
X499462Y202000D02*
X560463D01*
X499449Y206000D02*
X560508D01*
X499481Y196000D02*
X561900D01*
X499322Y246000D02*
X561462D01*
X499316Y248000D02*
X564258D01*
X499348Y238000D02*
X563663D01*
X499335Y242000D02*
X560538D01*
X499329Y244000D02*
X560580D01*
X499341Y240000D02*
X561313D01*
X499379Y228000D02*
X590295D01*
X499373Y230000D02*
X590295D01*
X499386Y226000D02*
X590295D01*
X499360Y234000D02*
X590295D01*
X499354Y236000D02*
X590295D01*
X499367Y232000D02*
X590295D01*
X517949Y294752D02*
X523247D01*
X522000D02*
Y306000D01*
X520000Y294752D02*
Y306000D01*
X518000Y294752D02*
Y297895D01*
X530849Y290655D02*
X533097Y292903D01*
X532000Y194500D02*
Y291806D01*
X530000Y194500D02*
Y290107D01*
X516000Y296125D02*
Y296453D01*
X516338Y296000D02*
X522523D01*
X504000Y295019D02*
Y297559D01*
X499164Y296000D02*
X505388D01*
X499170Y294000D02*
X503326D01*
X499177Y292000D02*
X502983D01*
X500000Y194400D02*
Y368000D01*
X498936D02*
X499486Y194400D01*
X502000D02*
Y368000D01*
X528000Y194500D02*
Y289952D01*
X526000Y194500D02*
Y289952D01*
X517949D02*
X529152D01*
X522000Y194500D02*
Y289952D01*
X520000Y194500D02*
Y289952D01*
X524000Y194500D02*
Y289952D01*
X518000Y194500D02*
Y289952D01*
X517700Y194500D02*
X551600D01*
X516000Y194400D02*
Y288579D01*
X514000Y194400D02*
Y288475D01*
X499468Y200000D02*
X560463D01*
X499455Y204000D02*
X560463D01*
X499474Y198000D02*
X560463D01*
X510111Y290000D02*
X511615D01*
X499183D02*
X503741D01*
X510000Y194400D02*
Y289857D01*
X512000Y194400D02*
Y289553D01*
X508000Y194400D02*
Y288541D01*
X499486Y194400D02*
X516822Y194400D01*
X504000Y194400D02*
Y289685D01*
X506000Y194400D02*
Y288503D01*
X557700Y512100D02*
X658700D01*
X557700D02*
Y546900D01*
X543028Y500000D02*
X658297D01*
X658000Y491100D02*
Y512100D01*
X539800Y506000D02*
X658497D01*
X541857Y504000D02*
X658430D01*
X542179Y502000D02*
X658363D01*
X551028Y492000D02*
X658030D01*
X553028Y490000D02*
X657963D01*
X555028Y488000D02*
X657897D01*
X556886Y486000D02*
X657830D01*
X545028Y498000D02*
X658230D01*
X547028Y496000D02*
X658163D01*
X549028Y494000D02*
X658097D01*
X552000Y491028D02*
Y546900D01*
X550000Y493028D02*
Y546900D01*
X556000Y487028D02*
Y546900D01*
X554000Y489028D02*
Y546900D01*
X546000Y497028D02*
Y546900D01*
X542000Y503633D02*
Y546900D01*
X548000Y495028D02*
Y546900D01*
X544000Y499028D02*
Y546900D01*
X541964Y501064D02*
X556511Y486517D01*
X540000Y505910D02*
Y546900D01*
X538000Y506288D02*
Y546900D01*
X536000Y505550D02*
Y546900D01*
X560000Y443953D02*
Y512100D01*
X558000Y443953D02*
Y512100D01*
X564000Y443909D02*
Y512100D01*
X562000Y443953D02*
Y512100D01*
X538835Y498537D02*
X553100Y484272D01*
X552000Y469728D02*
Y485372D01*
X557100Y484000D02*
X657763D01*
X557100Y482000D02*
X657697D01*
X557100Y470000D02*
Y485100D01*
X553100Y470828D02*
Y484272D01*
X550223Y484000D02*
X553100D01*
X550700Y482000D02*
X553100D01*
X548000Y484800D02*
Y489372D01*
X546000Y484800D02*
Y491372D01*
X550000Y484237D02*
Y487372D01*
X544000Y484799D02*
Y493372D01*
X542000Y483298D02*
Y495372D01*
X538000Y484458D02*
Y498512D01*
X540000Y482781D02*
Y497372D01*
X544050Y484800D02*
X548550D01*
X550700Y478150D02*
Y482650D01*
X538830Y484000D02*
X542377D01*
X540399Y482000D02*
X541900D01*
Y478150D02*
Y482650D01*
X517400Y546000D02*
X557700D01*
X520300Y546900D02*
X557700Y546900D01*
X517400Y542000D02*
X557700D01*
X517400Y544000D02*
X557700D01*
X517400Y538000D02*
X557700D01*
X517400Y540000D02*
X557700D01*
X517400Y536000D02*
X557700D01*
X528400Y528000D02*
X557700D01*
X528400Y530000D02*
X557700D01*
X529666Y510000D02*
X658630D01*
X531042Y508000D02*
X658563D01*
X528182Y532000D02*
X557700D01*
X517400Y534000D02*
X557700D01*
X523650Y512000D02*
X658697D01*
X528400Y522000D02*
X557700D01*
X528400Y526000D02*
X557700D01*
X530000Y509714D02*
Y546900D01*
X528400Y520000D02*
Y531000D01*
X528000Y532327D02*
Y546900D01*
X528400Y524000D02*
X557700D01*
X527327Y518000D02*
X557700D01*
X528400Y520000D02*
X557700D01*
X528000Y510737D02*
Y518673D01*
X523650Y514000D02*
X557700D01*
X523650Y516000D02*
X557700D01*
X531095Y506000D02*
X536800D01*
X529908Y504000D02*
X534743D01*
X536000Y484790D02*
Y499250D01*
X529700Y498000D02*
X539372D01*
X529700Y500000D02*
X535226D01*
X529700Y496000D02*
X541372D01*
X532094Y488000D02*
X549372D01*
X530094Y490000D02*
X547372D01*
X534094Y486000D02*
X551372D01*
X529700Y492000D02*
X545372D01*
X529700Y494000D02*
X543372D01*
X529700Y490394D02*
X535389Y484705D01*
X529700Y502000D02*
X534421D01*
X530000Y490094D02*
Y504086D01*
X534000Y486094D02*
Y546900D01*
X532000Y488094D02*
Y546900D01*
X529700Y490394D02*
Y503826D01*
X528950Y483913D02*
Y484356D01*
X530000Y482781D02*
Y483306D01*
X528950Y484000D02*
X529306D01*
X530399Y482000D02*
X531306D01*
X528950Y484356D02*
X531995Y481311D01*
X557100Y480000D02*
X657630D01*
X557100Y478000D02*
X657563D01*
X557100Y476000D02*
X657497D01*
X557100Y474000D02*
X657430D01*
X557100Y472000D02*
X657363D01*
X557100Y470000D02*
X657297D01*
X555928Y468000D02*
X657230D01*
X555200Y460000D02*
X656963D01*
X555200Y458000D02*
X656897D01*
X555200Y456000D02*
X656830D01*
X555200Y454000D02*
X656763D01*
X555200Y466000D02*
X657163D01*
X555200Y464000D02*
X657097D01*
X555200Y462000D02*
X657030D01*
X550695Y478000D02*
X553100D01*
X550700Y480000D02*
X553100D01*
X551789Y469517D02*
X553100Y470828D01*
X544050Y476000D02*
X548550D01*
X544050D02*
X548550D01*
X553100D01*
X555200Y450000D02*
X656630D01*
X555200Y467272D02*
X556511Y468583D01*
X555200Y452000D02*
X656697D01*
X557747Y443953D02*
X563653D01*
X565053Y436647D02*
Y442553D01*
X555200Y448000D02*
X656563D01*
X555200Y446000D02*
X656497D01*
X555200Y444000D02*
X656430D01*
X565053Y442000D02*
X656363D01*
X565053Y440000D02*
X656297D01*
X565053Y438000D02*
X656230D01*
X564894Y436000D02*
X656163D01*
X557747Y435247D02*
X563653D01*
X555200Y442100D02*
Y467272D01*
X551200Y443924D02*
Y468100D01*
X556347Y436647D02*
Y442553D01*
X550000Y443896D02*
Y476563D01*
X548000Y443014D02*
Y476000D01*
X555197Y442000D02*
X556347D01*
X555034Y440000D02*
X556347D01*
X554748Y438000D02*
X556347D01*
X553147Y436000D02*
X556506D01*
X539988Y478000D02*
X541905D01*
X512700Y474000D02*
X553100D01*
X536300Y476000D02*
X544050D01*
X512700Y472000D02*
X553100D01*
X512700Y470000D02*
X552272D01*
X512700Y468000D02*
X551200D01*
X512700Y458000D02*
X551200D01*
X512700Y460000D02*
X551200D01*
X539988Y454000D02*
X551200D01*
X536300Y456000D02*
X551200D01*
X512700Y464000D02*
X551200D01*
X512700Y466000D02*
X551200D01*
X512700Y462000D02*
X551200D01*
X540682Y480000D02*
X541900D01*
X538000Y455658D02*
Y476342D01*
X534000Y455351D02*
Y476649D01*
X529988Y478000D02*
X532612D01*
X530682Y480000D02*
X531918D01*
X528000Y455658D02*
Y476342D01*
X526300Y476000D02*
X536300D01*
X536000Y455990D02*
Y476010D01*
X529988Y454000D02*
X532612D01*
X526300Y456000D02*
X536300D01*
X516300Y476000D02*
X526300D01*
X516300Y456000D02*
X526300D01*
X540682Y452000D02*
X551200D01*
X540000Y453981D02*
Y478019D01*
X538830Y448000D02*
X551200D01*
X540399Y450000D02*
X551200D01*
X512700Y446000D02*
X551200D01*
X534000Y442438D02*
Y447849D01*
X534331Y442000D02*
X547069D01*
X535034Y440000D02*
X546366D01*
X533147Y436000D02*
X548253D01*
X534748Y438000D02*
X546652D01*
X512700Y444000D02*
X551200D01*
X532000Y452533D02*
Y479467D01*
X530682Y452000D02*
X531918D01*
X530399Y450000D02*
X532201D01*
X532000Y443754D02*
Y450667D01*
X530000Y453981D02*
Y478019D01*
Y443896D02*
Y449219D01*
X528830Y448000D02*
X533770D01*
X528000Y443014D02*
Y447542D01*
X525034Y440000D02*
X526366D01*
X524331Y442000D02*
X527069D01*
X524748Y438000D02*
X526652D01*
X523147Y436000D02*
X527406D01*
X522000Y533400D02*
Y546900D01*
X520000Y533400D02*
Y547500D01*
X526000Y533400D02*
Y546900D01*
X524000Y533400D02*
Y546900D01*
X517400Y548000D02*
X519750D01*
X517400Y550000D02*
X518750D01*
X517984Y551531D02*
X520300Y546900D01*
X523650Y517600D02*
X526000D01*
X520000Y533400D02*
X526000D01*
Y510577D02*
Y517600D01*
X523650Y510000D02*
X524934D01*
X517400Y514000D02*
X518350D01*
X517400Y512000D02*
X518350D01*
X510900Y651290D02*
X510900Y582632D01*
X510000Y582633D02*
Y651292D01*
X518000Y532327D02*
Y551500D01*
X508829Y551128D02*
X509600Y550358D01*
X508000Y582633D02*
Y651296D01*
Y511394D02*
Y551104D01*
X517400Y532000D02*
X517818D01*
X517600Y520000D02*
Y531000D01*
X517400Y510000D02*
X518350D01*
X517400Y516000D02*
X518350D01*
X517400Y518000D02*
X518350D01*
X509600Y512994D02*
Y550358D01*
X524000Y508979D02*
Y517600D01*
X523650Y508274D02*
Y517600D01*
X519130Y502123D02*
X521400Y499852D01*
X520000Y482781D02*
Y501252D01*
X512700Y502000D02*
X519252D01*
X512700Y500000D02*
X521252D01*
X512700Y496000D02*
X521400D01*
X512700Y498000D02*
X521400D01*
Y488054D02*
Y499852D01*
X512700Y492000D02*
X521400D01*
X512700Y494000D02*
X521400D01*
X512700Y490000D02*
X521400D01*
X517400Y509700D02*
Y551288D01*
X518350Y504000D02*
Y518257D01*
X518000Y484458D02*
Y518673D01*
X516694Y508000D02*
X518350D01*
X512700Y504006D02*
X516697Y508003D01*
X514694Y506000D02*
X518350D01*
X516000Y484790D02*
Y507306D01*
X512700Y504000D02*
X518350D01*
X514000Y484151D02*
Y505306D01*
X512700Y482930D02*
Y504006D01*
X505741Y574715D02*
X507711D01*
X506000Y574022D02*
Y574715D01*
Y558274D02*
Y559703D01*
Y566148D02*
Y567578D01*
X505741Y582633D02*
X510859D01*
X443416Y520000D02*
X509600D01*
X505103Y508497D02*
X509600Y512994D01*
X443852Y518000D02*
X509600D01*
X443313Y516000D02*
X509600D01*
X441433Y522000D02*
X509600D01*
X440962Y514000D02*
X509600D01*
X506000Y582633D02*
Y651300D01*
X504341Y576115D02*
Y581233D01*
X444000Y498594D02*
Y651427D01*
X442000Y521663D02*
Y651431D01*
X446000Y496594D02*
Y651423D01*
X506000Y509394D02*
Y551829D01*
X442594Y500000D02*
X504400D01*
X442000Y500594D02*
Y514537D01*
X444594Y498000D02*
X504400D01*
X492000Y477879D02*
Y651329D01*
X490000Y474248D02*
Y651333D01*
X488000Y471879D02*
Y651337D01*
X466000Y442175D02*
Y651382D01*
X462000Y444694D02*
Y651390D01*
X460000Y446694D02*
Y651394D01*
X464000Y444541D02*
Y651386D01*
X450900Y490000D02*
X504400D01*
X496000Y479637D02*
Y651321D01*
X498000Y478614D02*
Y651316D01*
X494000Y479477D02*
Y651325D01*
X448594Y494000D02*
X504400D01*
X446594Y496000D02*
X504400D01*
X450517Y492000D02*
X504400D01*
X454000Y452694D02*
Y651406D01*
X452000Y454694D02*
Y651411D01*
X458000Y448694D02*
Y651398D01*
X456000Y450694D02*
Y651403D01*
X450000Y492594D02*
Y651415D01*
X448000Y494594D02*
Y651419D01*
X440897Y501697D02*
X450197Y492397D01*
X450900Y455794D02*
Y490700D01*
X446100Y454800D02*
Y489706D01*
X442000Y452300D02*
Y493806D01*
X444000Y451748D02*
Y491806D01*
X522180Y486177D02*
X523650Y484706D01*
Y483913D02*
Y484706D01*
X522000Y481333D02*
Y486375D01*
X512700Y486000D02*
X522356D01*
X512700Y488000D02*
X521401D01*
X518830Y484000D02*
X523650D01*
X520399Y482000D02*
X522201D01*
X519988Y478000D02*
X522612D01*
X520682Y480000D02*
X521918D01*
X512700Y476000D02*
X516300D01*
X512700Y456000D02*
X516300D01*
X512700Y484000D02*
X513770D01*
X498520Y478000D02*
X504400D01*
X498760Y474000D02*
X504400D01*
X499195Y476000D02*
X504400D01*
X496177Y472000D02*
X504400D01*
X493150Y469902D02*
X495151Y471903D01*
X493150Y468000D02*
X504400D01*
X493248Y470000D02*
X504400D01*
X493150Y464000D02*
X504400D01*
X493150Y466000D02*
X504400D01*
X493150Y460000D02*
X504400D01*
X493150Y462000D02*
X504400D01*
X493150Y458000D02*
X504400D01*
X526000Y455990D02*
Y476010D01*
X524000Y455351D02*
Y476649D01*
X522000Y452533D02*
Y479467D01*
X520682Y452000D02*
X521918D01*
X519988Y454000D02*
X522612D01*
X520399Y450000D02*
X522201D01*
X522000Y443754D02*
Y450667D01*
X526000Y434594D02*
Y447210D01*
X524000Y442438D02*
Y447849D01*
X518830Y448000D02*
X523770D01*
X520000Y443896D02*
Y449219D01*
X518000Y455658D02*
Y476342D01*
X516000Y455990D02*
Y476010D01*
X520000Y453981D02*
Y478019D01*
X518000Y443014D02*
Y447542D01*
X514000Y455351D02*
Y476649D01*
X512700Y454130D02*
Y477870D01*
Y448000D02*
X513770D01*
X512700Y442000D02*
X517069D01*
X512700Y440000D02*
X516366D01*
X512700Y438000D02*
X516652D01*
X512700Y436000D02*
X518253D01*
X493150Y442000D02*
X504400D01*
X493150Y436000D02*
X504400D01*
X450900Y486000D02*
X504400D01*
X450900Y488000D02*
X504400D01*
X450900Y484000D02*
X504400D01*
X450900Y480000D02*
X504400D01*
X450900Y482000D02*
X504400D01*
X450900Y478000D02*
X492080D01*
X493150Y456000D02*
X504400D01*
X488629Y472877D02*
X491403Y475651D01*
X493150Y452000D02*
X504400D01*
X493150Y454000D02*
X504400D01*
X450900Y476000D02*
X491405D01*
X450900Y474000D02*
X489752D01*
X450900Y472000D02*
X488046D01*
X450900Y468000D02*
X487850D01*
X450900Y470000D02*
X487850D01*
X450900Y464000D02*
X487850D01*
X450900Y466000D02*
X487850D01*
X450900Y462000D02*
X487850D01*
X450900Y458000D02*
X487850D01*
X450900Y460000D02*
X487850D01*
X452694Y454000D02*
X487850D01*
X450900Y456000D02*
X487850D01*
X493150Y448000D02*
X504400D01*
X493150Y450000D02*
X504400D01*
X493150Y444000D02*
X504400D01*
X493150Y446000D02*
X504400D01*
X458694Y448000D02*
X487850D01*
X454694Y452000D02*
X487850D01*
X460694Y446000D02*
X487850D01*
X466000Y440000D02*
X487850D01*
X466000Y442000D02*
X487850D01*
X493150Y438000D02*
X504400D01*
X493150Y440000D02*
X504400D01*
X466000Y438000D02*
X487850D01*
X465159Y444000D02*
X487850D01*
X466000Y436000D02*
X487850D01*
X456694Y450000D02*
X487850D01*
X445879Y448000D02*
X451906D01*
X450900Y455794D02*
X462119Y444575D01*
X446803Y453103D02*
X459428Y440478D01*
X445557Y450000D02*
X449906D01*
X443500Y452000D02*
X447906D01*
X462119Y444575D02*
X463600D01*
X445074Y446000D02*
X453906D01*
X656000Y431100D02*
Y512100D01*
X652000Y406005D02*
Y512100D01*
X655139Y405281D02*
X658700Y512100D01*
X654000Y405717D02*
Y512100D01*
X650000Y406005D02*
Y512100D01*
X648000Y406005D02*
Y512100D01*
X642000Y402822D02*
Y512100D01*
X652252Y406000D02*
X655163D01*
X648032Y406005D02*
X651968D01*
X646000Y405717D02*
Y512100D01*
X644000Y404792D02*
Y512100D01*
X642000Y387222D02*
Y394578D01*
X592000Y392120D02*
Y512100D01*
X590000Y393333D02*
Y512100D01*
X622000Y363918D02*
Y512100D01*
X620000Y363918D02*
Y512100D01*
X588000Y393500D02*
Y512100D01*
X586000Y393427D02*
Y512100D01*
X584000Y392494D02*
Y512100D01*
X636000Y363918D02*
Y512100D01*
X630000Y363918D02*
Y512100D01*
X640000Y363918D02*
Y512100D01*
X638000Y363918D02*
Y512100D01*
X626000Y363918D02*
Y512100D01*
X624000Y363918D02*
Y512100D01*
X628000Y363918D02*
Y512100D01*
X604000Y363918D02*
Y512100D01*
X602000Y363918D02*
Y512100D01*
X608000Y363918D02*
Y512100D01*
X606000Y363918D02*
Y512100D01*
X598000Y363918D02*
Y512100D01*
X596000Y363918D02*
Y512100D01*
X600000Y363918D02*
Y512100D01*
X618000Y363918D02*
Y512100D01*
X616000Y363918D02*
Y512100D01*
X634000Y363918D02*
Y512100D01*
X632000Y363918D02*
Y512100D01*
X612000Y363918D02*
Y512100D01*
X610000Y363918D02*
Y512100D01*
X614000Y363918D02*
Y512100D01*
X580000Y363918D02*
Y512100D01*
X578000Y363918D02*
Y512100D01*
X594000Y363918D02*
Y512100D01*
X582000Y363918D02*
Y512100D01*
X574000Y363918D02*
Y512100D01*
X572000Y363918D02*
Y512100D01*
X576000Y363918D02*
Y512100D01*
X568000Y363918D02*
Y512100D01*
X566000Y363918D02*
Y512100D01*
X570000Y363918D02*
Y512100D01*
X562000Y363918D02*
Y435247D01*
X560000Y363918D02*
Y435247D01*
X564000Y363918D02*
Y435291D01*
X532194Y434000D02*
X656097D01*
X530194Y432000D02*
X656030D01*
X528194Y430000D02*
X655963D01*
X526194Y428000D02*
X655897D01*
X524194Y426000D02*
X655830D01*
X522194Y424000D02*
X655763D01*
X520194Y422000D02*
X655697D01*
X518700Y420000D02*
X655630D01*
X519830Y412000D02*
X655363D01*
X521830Y410000D02*
X655297D01*
X523830Y408000D02*
X655230D01*
X518148Y418000D02*
X655563D01*
X515830Y416000D02*
X655497D01*
X517830Y414000D02*
X655430D01*
X524000Y432594D02*
Y436762D01*
X522000Y430594D02*
Y435446D01*
X520000Y428594D02*
Y435304D01*
X515277Y423871D02*
X527779Y436373D01*
X512700Y434000D02*
X525406D01*
X518671Y420477D02*
X532397Y434203D01*
X522000Y409830D02*
Y423806D01*
X520000Y411830D02*
Y421806D01*
X524000Y407830D02*
Y425806D01*
X512700Y432000D02*
X523406D01*
X512700Y430000D02*
X521406D01*
X512700Y428000D02*
X519406D01*
X552000Y363918D02*
Y435446D01*
X550000Y363918D02*
Y435304D01*
X556000Y363918D02*
Y468072D01*
X554000Y363918D02*
Y436762D01*
X546000Y363918D02*
Y476000D01*
X544000Y363918D02*
Y476001D01*
X548000Y363918D02*
Y436186D01*
X525236Y404000D02*
X643004D01*
X525236Y402000D02*
X641514D01*
X525236Y396000D02*
X641243D01*
X558000Y363918D02*
Y435247D01*
X525203Y406000D02*
X647748D01*
X525236Y400000D02*
X640843D01*
X525236Y398000D02*
X640760D01*
X538000Y363918D02*
Y447542D01*
X536000Y371186D02*
Y447210D01*
X542000Y363918D02*
Y477502D01*
X540000Y363918D02*
Y449219D01*
X532000Y375594D02*
Y433806D01*
X530000Y377594D02*
Y431806D01*
X534000Y373594D02*
Y436762D01*
X526000Y381594D02*
Y427806D01*
X525236Y392064D02*
Y405600D01*
X528000Y379594D02*
Y429806D01*
X515639Y416191D02*
X524533Y407297D01*
X652000Y390405D02*
Y391395D01*
X654627Y389905D02*
X654694Y391922D01*
X654000Y390117D02*
Y391683D01*
X648032Y391394D02*
X651968D01*
X648000Y390405D02*
Y391395D01*
X646000Y390117D02*
Y391683D01*
X648032Y390406D02*
X651968D01*
X650000D02*
Y391394D01*
X653689Y376000D02*
X654163D01*
X591923D02*
X646311D01*
X593107Y390000D02*
X645631D01*
X592109Y392000D02*
X645119D01*
X644000Y389192D02*
Y392608D01*
X593060Y388000D02*
X642613D01*
X592000Y382120D02*
Y386080D01*
X591923Y386000D02*
X641326D01*
X592109Y382000D02*
X640809D01*
X590000Y383333D02*
Y384867D01*
X593060Y378000D02*
X642801D01*
X593107Y380000D02*
X641416D01*
X586800Y384700D02*
X588800D01*
X588000Y383500D02*
Y384700D01*
X652000Y374805D02*
Y375795D01*
X654113Y374484D02*
X654168Y376133D01*
X654000Y374517D02*
Y376083D01*
X646000Y374517D02*
Y376083D01*
X644000Y373592D02*
Y377008D01*
X642000Y371622D02*
Y378978D01*
X648032Y375795D02*
X651968D01*
X650000Y374805D02*
Y375795D01*
X648032Y374805D02*
X651968D01*
X648000Y374805D02*
Y375795D01*
X593099Y372000D02*
X642276D01*
X592000Y373279D02*
Y376080D01*
X593200Y370000D02*
X641167D01*
X593200Y366850D02*
Y371350D01*
X590000Y373500D02*
Y374867D01*
X588000Y373500D02*
Y374700D01*
X593025Y366000D02*
X640882D01*
X593200Y368000D02*
X640743D01*
X592000Y363918D02*
Y364921D01*
X590000Y363918D02*
Y364700D01*
X588000Y363918D02*
Y364700D01*
X586800Y383500D02*
X588800D01*
X586800Y393500D02*
X588800D01*
X586000Y383427D02*
Y384773D01*
X584000Y382494D02*
Y385706D01*
X525236Y394000D02*
X642439D01*
X525000Y384000D02*
X640782D01*
X586800Y374700D02*
X588800D01*
X586000Y373500D02*
Y374773D01*
X584550Y373500D02*
X591050D01*
X584000Y373429D02*
Y375706D01*
X531594Y376000D02*
X583677D01*
X533594Y374000D02*
X644697D01*
X525235Y392000D02*
X583491D01*
X525000Y382594D02*
Y391026D01*
Y388000D02*
X582540D01*
X525000Y390000D02*
X582493D01*
X525000Y386000D02*
X583677D01*
X525594Y382000D02*
X583491D01*
X527594Y380000D02*
X582493D01*
X529594Y378000D02*
X582540D01*
X496810Y374000D02*
X522563D01*
X498540Y376000D02*
X520563D01*
X525000Y382594D02*
X535397Y372197D01*
X536100Y370000D02*
X582400D01*
Y366850D02*
Y371350D01*
X536100Y368000D02*
X582400D01*
X535573Y372000D02*
X582501D01*
X584550Y364700D02*
X591050D01*
X586000Y363918D02*
Y364700D01*
X584000Y363918D02*
Y364772D01*
X536100Y364000D02*
X641619D01*
X536100Y366000D02*
X582575D01*
X536100Y363918D02*
X641665D01*
X524000D02*
Y372563D01*
X522000Y363918D02*
Y374563D01*
X536100Y363918D02*
Y370500D01*
X526000Y363918D02*
Y370563D01*
X517903Y378660D02*
X528300Y368263D01*
X456700Y370000D02*
X526563D01*
X520000Y363918D02*
Y376563D01*
X463776Y363918D02*
X528300D01*
X528000D02*
Y368563D01*
X528300Y363918D02*
Y368263D01*
X461694Y366000D02*
X528300D01*
X459694Y368000D02*
X528300D01*
X463694Y364000D02*
X528300D01*
X518000Y426594D02*
Y436186D01*
X516000Y424594D02*
Y447210D01*
X514000Y423817D02*
Y447849D01*
X512700Y423286D02*
Y449070D01*
X493102Y430000D02*
X504900D01*
X491900Y428000D02*
X504900D01*
X512700Y424000D02*
X515406D01*
X516000Y415830D02*
Y416289D01*
X512700Y426000D02*
X517406D01*
X504400Y432700D02*
Y506800D01*
X493150Y434000D02*
X504400D01*
X493150Y430500D02*
Y469902D01*
X487850Y431897D02*
Y471000D01*
X486000Y431348D02*
Y651341D01*
X480000Y415494D02*
Y651353D01*
X493150Y432000D02*
X504504D01*
X504900Y416893D02*
Y431234D01*
X491348Y426000D02*
X504900D01*
X491897Y428150D02*
X492371Y428623D01*
X518000Y413830D02*
Y417771D01*
X505603Y415196D02*
X517436Y403363D01*
X506000Y363918D02*
Y414799D01*
X481494Y414000D02*
X506799D01*
X502000Y363918D02*
Y651308D01*
X504000Y363918D02*
Y651304D01*
X510000Y363918D02*
Y410799D01*
X508000Y363918D02*
Y412799D01*
X514000Y363918D02*
Y406799D01*
X512000Y363918D02*
Y408799D01*
X485494Y410000D02*
X510799D01*
X483494Y412000D02*
X508799D01*
X487494Y408000D02*
X512799D01*
X496000Y395233D02*
Y471963D01*
X494000Y395500D02*
Y470752D01*
X500000Y363918D02*
Y651312D01*
X498000Y379766D02*
Y472986D01*
X484000Y411494D02*
Y651345D01*
X482000Y413494D02*
Y651349D01*
X492000Y395500D02*
Y428252D01*
X490000Y395500D02*
Y424652D01*
X488000Y407494D02*
Y424100D01*
X486000Y409494D02*
Y424652D01*
X482000Y363918D02*
Y406706D01*
X474000Y421494D02*
Y651366D01*
X472000Y423494D02*
Y651370D01*
X478000Y417494D02*
Y651357D01*
X476000Y419494D02*
Y651362D01*
X466000Y432000D02*
X487850D01*
X466000Y434000D02*
X487850D01*
X466000Y430000D02*
X484652D01*
X475494Y420000D02*
X504900D01*
X473494Y422000D02*
X504900D01*
X479494Y416000D02*
X505072D01*
X477494Y418000D02*
X504900D01*
X469494Y426000D02*
X484652D01*
X467494Y428000D02*
X484100D01*
X471494Y424000D02*
X504900D01*
X468000Y427494D02*
Y651378D01*
X466000Y429494D02*
Y442175D01*
X470000Y425494D02*
Y651374D01*
X454000Y415800D02*
Y445906D01*
X452000Y415800D02*
Y447906D01*
X450000Y415800D02*
Y449906D01*
X448000Y415663D02*
Y451906D01*
X466000Y429494D02*
Y442175D01*
X461200Y428500D02*
Y439775D01*
X462000Y415796D02*
Y426706D01*
X448800Y415800D02*
X454800D01*
X470000Y363918D02*
Y418706D01*
X468000Y363918D02*
Y420706D01*
X474000Y363918D02*
Y414706D01*
X472000Y363918D02*
Y416706D01*
X466000Y429494D02*
X488072Y407422D01*
X461903Y426803D02*
X483975Y404731D01*
X467200Y408000D02*
X480706D01*
X476000Y363918D02*
Y412706D01*
X480000Y363918D02*
Y408706D01*
X478000Y363918D02*
Y410706D01*
X466958Y412000D02*
X476706D01*
X465825Y414000D02*
X474706D01*
X467200Y410000D02*
X478706D01*
X460000Y415491D02*
Y440055D01*
X456000Y415479D02*
Y443906D01*
X464000Y415332D02*
Y424706D01*
X458000Y414237D02*
Y441906D01*
X444000Y370000D02*
Y445052D01*
X442000Y370000D02*
Y444500D01*
X446000Y370000D02*
Y489806D01*
X466000Y413794D02*
Y422706D01*
X457124Y414000D02*
X457775D01*
X467200Y405400D02*
Y410400D01*
X446400Y402400D02*
Y413400D01*
X488775Y402000D02*
X517436D01*
X488775Y404000D02*
X516799D01*
X517436Y394109D02*
Y403363D01*
X488775Y396000D02*
X517436D01*
X488775Y400000D02*
X517436D01*
X488759Y406000D02*
X514799D01*
X488775Y398000D02*
X517436D01*
X497300Y388000D02*
X517200D01*
X497300Y392000D02*
X517200D01*
X497125Y394000D02*
X517387D01*
X497300Y390000D02*
X517200D01*
X488775Y395500D02*
Y405725D01*
X467200Y406000D02*
X482706D01*
X488775Y395500D02*
X494900D01*
X483975Y393100D02*
Y404731D01*
X465995Y402000D02*
X483975D01*
X467015Y404000D02*
X483975D01*
X466000Y393866D02*
Y402006D01*
X486375Y390700D02*
X492500D01*
X467100Y390000D02*
X492500D01*
X466915Y392000D02*
X484242D01*
X467100Y388000D02*
X492500D01*
X497300Y386000D02*
X517200D01*
X497300Y380474D02*
Y393100D01*
X517200Y380357D02*
Y393071D01*
X516000Y363918D02*
Y404799D01*
X497300Y382000D02*
X517200D01*
X497300Y384000D02*
X517200D01*
X498754Y378000D02*
X518563D01*
X518000Y363918D02*
Y378563D01*
X497807Y380000D02*
X517227D01*
X498000Y363918D02*
Y375034D01*
X492500Y380474D02*
Y390700D01*
X492000Y380008D02*
Y390700D01*
X490000Y363918D02*
Y390700D01*
X488000Y363918D02*
Y390700D01*
X484000Y363918D02*
Y392755D01*
X467100Y385600D02*
Y390600D01*
X486000Y363918D02*
Y390729D01*
X494000Y363918D02*
Y373605D01*
X492000Y363918D02*
Y374792D01*
X496000Y363918D02*
Y373658D01*
X466857Y384000D02*
X492500D01*
X467100Y386000D02*
X492500D01*
X466000Y363918D02*
Y382333D01*
X462000Y395992D02*
Y400004D01*
X460000Y395725D02*
Y400309D01*
X464000Y395486D02*
Y400468D01*
X458000Y394533D02*
Y401563D01*
X457166Y402000D02*
X457605D01*
X461700Y396000D02*
X483975D01*
X461800Y400000D02*
X483975D01*
X465895Y394000D02*
X483975D01*
X454800Y400000D02*
X461800D01*
X454700Y396000D02*
X461700D01*
X457066Y394000D02*
X457505D01*
X448800Y400000D02*
X454800D01*
X450000Y396000D02*
Y400000D01*
X456000Y395617D02*
Y400321D01*
X454000Y396000D02*
Y400000D01*
X448800D02*
X454800D01*
X448000Y395896D02*
Y400137D01*
X448700Y396000D02*
X454700D01*
X452000D02*
Y400000D01*
X448700Y396000D02*
X454700D01*
X446300Y382600D02*
Y393600D01*
X465725Y382000D02*
X492500D01*
X464000Y363918D02*
Y380714D01*
X458000Y369617D02*
Y381667D01*
X457024Y382000D02*
X457675D01*
X456000Y370000D02*
Y380583D01*
X460000Y367694D02*
Y380475D01*
X458397Y369297D02*
X463776Y363918D01*
X462000Y365694D02*
Y380208D01*
X456000Y363918D02*
Y364906D01*
X455706Y365200D02*
X456988Y363918D01*
X454000Y370000D02*
Y380200D01*
X452000Y370000D02*
Y380200D01*
X454000Y363918D02*
Y365200D01*
X450000Y370000D02*
Y380200D01*
X448700D02*
X454700D01*
X448000Y370000D02*
Y380304D01*
X450000Y363918D02*
Y365200D01*
X448000Y363918D02*
Y365200D01*
X452000Y363918D02*
Y365200D01*
X444000Y363918D02*
Y365200D01*
X442000Y363918D02*
Y365200D01*
X446000Y363918D02*
Y365200D01*
X323700Y650000D02*
X510900D01*
X323700Y651674D02*
X510900Y651290D01*
X436000Y524994D02*
Y651443D01*
X434000Y526994D02*
Y651447D01*
X323700Y638000D02*
X510900D01*
X323700Y640000D02*
X510900D01*
X323700Y636000D02*
X510900D01*
X432994Y528000D02*
X509600D01*
X436994Y524000D02*
X509600D01*
X434994Y526000D02*
X509600D01*
X323700Y632000D02*
X510900D01*
X323700Y634000D02*
X510900D01*
X416000Y528700D02*
Y651484D01*
X414000Y528700D02*
Y651488D01*
X420000Y528700D02*
Y651476D01*
X418000Y528700D02*
Y651480D01*
X410000Y528700D02*
Y651497D01*
X408000Y528700D02*
Y651501D01*
X412000Y528700D02*
Y651493D01*
X428000Y528700D02*
Y651460D01*
X426000Y528700D02*
Y651464D01*
X432000Y528596D02*
Y651452D01*
X430000Y528700D02*
Y651456D01*
X374300Y528700D02*
X431300D01*
X422000D02*
Y651472D01*
X424000Y528700D02*
Y651468D01*
X440000Y522424D02*
Y651435D01*
X438000Y522994D02*
Y651439D01*
X432997Y527997D02*
X438629Y522365D01*
X430306Y523900D02*
X435235Y518971D01*
X375294Y523900D02*
X430306D01*
X428000Y522186D02*
Y523900D01*
X426000Y520688D02*
Y523900D01*
X431433Y522000D02*
X432206D01*
X432000Y521663D02*
Y522206D01*
X434000Y502400D02*
Y520206D01*
X430000Y522424D02*
Y523900D01*
X421433Y522000D02*
X427567D01*
X420000Y522424D02*
Y523900D01*
X418000Y522186D02*
Y523900D01*
X424000Y498394D02*
Y523900D01*
X422000Y521663D02*
Y523900D01*
X410000Y522424D02*
Y523900D01*
X408000Y522186D02*
Y523900D01*
X416000Y520688D02*
Y523900D01*
X423416Y520000D02*
X425584D01*
X414000Y510694D02*
Y523900D01*
X411433Y522000D02*
X417567D01*
X412000Y521663D02*
Y523900D01*
X285216Y602000D02*
X510900D01*
X285199Y604000D02*
X510900D01*
X285249Y598000D02*
X510900D01*
X285232Y600000D02*
X510900D01*
X285167Y608000D02*
X510900D01*
X285151Y610000D02*
X510900D01*
X285183Y606000D02*
X510900D01*
X285330Y588000D02*
X510900D01*
X285314Y590000D02*
X510900D01*
X285363Y584000D02*
X510900D01*
X285347Y586000D02*
X510900D01*
X285281Y594000D02*
X510900D01*
X285265Y596000D02*
X510900D01*
X285298Y592000D02*
X510900D01*
X323700Y646000D02*
X510900D01*
X323700Y648000D02*
X510900D01*
X323700Y642000D02*
X510900D01*
X323700Y644000D02*
X510900D01*
X285003Y628000D02*
X510900D01*
X284987Y630000D02*
X510900D01*
X285020Y626000D02*
X510900D01*
X285101Y616000D02*
X510900D01*
X285085Y618000D02*
X510900D01*
X285134Y612000D02*
X510900D01*
X285118Y614000D02*
X510900D01*
X285052Y622000D02*
X510900D01*
X285036Y624000D02*
X510900D01*
X285069Y620000D02*
X510900D01*
X285657Y548000D02*
X509600D01*
X285641Y550000D02*
X509600D01*
X285690Y544000D02*
X509600D01*
X285674Y546000D02*
X509600D01*
X285445Y574000D02*
X505969D01*
X285510Y566000D02*
X505805D01*
X285625Y552000D02*
X505778D01*
X285772Y534000D02*
X509600D01*
X285755Y536000D02*
X509600D01*
X285804Y530000D02*
X509600D01*
X285788Y532000D02*
X509600D01*
X285723Y540000D02*
X509600D01*
X285706Y542000D02*
X509600D01*
X285739Y538000D02*
X509600D01*
X285461Y572000D02*
X504527D01*
X285428Y576000D02*
X504346D01*
X285494Y568000D02*
X505501D01*
X285477Y570000D02*
X504423D01*
X285379Y582000D02*
X504570D01*
X285396Y580000D02*
X504341D01*
X285412Y578000D02*
X504341D01*
X285576Y558000D02*
X505657D01*
X285592Y556000D02*
X504456D01*
X285608Y554000D02*
X504483D01*
X285526Y564000D02*
X504489D01*
X285543Y562000D02*
X504451D01*
X285559Y560000D02*
X505633D01*
X436000Y502400D02*
Y515512D01*
X440000Y502263D02*
Y513776D01*
X438000Y502400D02*
Y514014D01*
X430962Y514000D02*
X438038D01*
X433313Y516000D02*
X435687D01*
X420657Y512000D02*
X508606D01*
X440527Y502000D02*
X504400D01*
X429994Y497600D02*
X438206D01*
X428394Y496000D02*
X439806D01*
X429000Y502400D02*
X439200D01*
X426394Y494000D02*
X441806D01*
X433852Y518000D02*
X435148D01*
X433416Y520000D02*
X434206D01*
X426000Y500394D02*
Y515512D01*
X423852Y518000D02*
X425148D01*
X423313Y516000D02*
X425687D01*
X422000Y496394D02*
Y514537D01*
X432000Y502400D02*
Y514537D01*
X430000Y502400D02*
Y513776D01*
Y492424D02*
Y497600D01*
X428000Y502182D02*
Y514014D01*
X420962Y514000D02*
X428038D01*
X433416Y490000D02*
X445806D01*
X432000Y491663D02*
Y497600D01*
X438206D02*
X446100Y489706D01*
X434000Y478094D02*
Y497600D01*
X431433Y492000D02*
X443806D01*
X433313Y486000D02*
X446100D01*
X433852Y488000D02*
X446100D01*
X432094Y480000D02*
X446100D01*
X432000Y480094D02*
Y484537D01*
X431900Y482000D02*
X446100D01*
X431900Y484000D02*
X446100D01*
X431900Y480194D02*
Y484469D01*
X428000Y492186D02*
Y495606D01*
X424394Y492000D02*
X427567D01*
X426000Y490688D02*
Y493606D01*
X423852Y488000D02*
X425148D01*
X423034Y490640D02*
X429994Y497600D01*
X423416Y490000D02*
X425584D01*
X427100Y479200D02*
Y484469D01*
X423313Y486000D02*
X425687D01*
X422994Y478000D02*
X427422D01*
X420994Y480000D02*
X427100D01*
X420962Y484000D02*
X427100D01*
X422000Y478994D02*
Y484537D01*
X415857Y512551D02*
Y515717D01*
X413416Y520000D02*
X415584D01*
X420657Y511557D02*
Y513904D01*
X410962Y514000D02*
X415857D01*
X413313Y516000D02*
X415687D01*
X408906Y505600D02*
X415857Y512551D01*
X420084Y510000D02*
X506606D01*
X418094Y508000D02*
X504721D01*
X416094Y506000D02*
X504400D01*
X414094Y504000D02*
X504400D01*
X412094Y502000D02*
X427673D01*
X411597Y501503D02*
X419954Y509860D01*
X413852Y518000D02*
X415148D01*
X412000Y508694D02*
Y514537D01*
X410000Y506694D02*
Y513776D01*
X408000Y505600D02*
Y514014D01*
X363394Y512000D02*
X415306D01*
X400962Y514000D02*
X408038D01*
X361394Y510000D02*
X413306D01*
X376194Y500800D02*
X409900D01*
X359394Y508000D02*
X411306D01*
X357394Y506000D02*
X409306D01*
X375200Y505600D02*
X408906D01*
X375394Y500000D02*
X425606D01*
X420000Y494394D02*
Y509907D01*
X417803Y492197D02*
X427303Y501697D01*
X418000Y492394D02*
Y507906D01*
X373394Y498000D02*
X423606D01*
X371394Y496000D02*
X421606D01*
X369394Y494000D02*
X419606D01*
X416994Y484000D02*
X418038D01*
X418000Y482994D02*
Y484014D01*
X418994Y482000D02*
X427100D01*
X420000Y480994D02*
Y483776D01*
X411433Y492000D02*
X417567D01*
X407994Y478000D02*
X416206D01*
X416000Y490688D02*
Y505906D01*
X413416Y490000D02*
X415584D01*
X414000Y486994D02*
Y503906D01*
X412000Y491663D02*
Y501906D01*
X410000Y492424D02*
Y500802D01*
X414994Y486000D02*
X415687D01*
X413852Y488000D02*
X415148D01*
X416000Y484994D02*
Y485512D01*
X393294Y482000D02*
X412206D01*
X400962Y484000D02*
X408038D01*
X405000Y480000D02*
X414206D01*
X402000Y528700D02*
Y651513D01*
X400000Y528700D02*
Y651517D01*
X406000Y528700D02*
Y651505D01*
X404000Y528700D02*
Y651509D01*
X396000Y528700D02*
Y651525D01*
X394000Y528700D02*
Y651530D01*
X398000Y528700D02*
Y651521D01*
X401433Y522000D02*
X407567D01*
X400000Y522424D02*
Y523900D01*
X406000Y520688D02*
Y523900D01*
X402000Y521663D02*
Y523900D01*
X398000Y522186D02*
Y523900D01*
X391433Y522000D02*
X397567D01*
X392000Y521663D02*
Y523900D01*
X388000Y528700D02*
Y651542D01*
X386000Y528700D02*
Y651546D01*
X392000Y528700D02*
Y651534D01*
X390000Y528700D02*
Y651538D01*
X382000Y528700D02*
Y651554D01*
X380000Y528700D02*
Y651558D01*
X384000Y528700D02*
Y651550D01*
X390000Y522424D02*
Y523900D01*
X388000Y522186D02*
Y523900D01*
X386000Y520688D02*
Y523900D01*
X382000Y521663D02*
Y523900D01*
X380000Y522424D02*
Y523900D01*
X378000Y522186D02*
Y523900D01*
X381433Y522000D02*
X387567D01*
X403416Y520000D02*
X405584D01*
X396000Y520688D02*
Y523900D01*
X403852Y518000D02*
X405148D01*
X404000Y505600D02*
Y523900D01*
X393313Y516000D02*
X395687D01*
X393416Y520000D02*
X395584D01*
X406000Y505600D02*
Y515512D01*
X403313Y516000D02*
X405687D01*
X402000Y505600D02*
Y514537D01*
X400000Y505600D02*
Y513776D01*
X390962Y514000D02*
X398038D01*
X396000Y505600D02*
Y515512D01*
X398000Y505600D02*
Y514014D01*
X393852Y518000D02*
X395148D01*
X394000Y505600D02*
Y523900D01*
X384000Y505600D02*
Y523900D01*
X383416Y520000D02*
X385584D01*
X383852Y518000D02*
X385148D01*
X383313Y516000D02*
X385687D01*
X388000Y505600D02*
Y514014D01*
X386000Y505600D02*
Y515512D01*
X392000Y505600D02*
Y514537D01*
X380962Y514000D02*
X388038D01*
X382000Y505600D02*
Y514537D01*
X380000Y505600D02*
Y513776D01*
X378000Y528700D02*
Y651562D01*
X376000Y528700D02*
Y651566D01*
X374000Y528681D02*
Y651571D01*
X372000Y527394D02*
Y651575D01*
X370000Y525394D02*
Y651579D01*
X373394Y522000D02*
X377567D01*
X376000Y520688D02*
Y523900D01*
X371394Y520000D02*
X375584D01*
X369394Y518000D02*
X375148D01*
X285821Y528000D02*
X372606D01*
X285837Y526000D02*
X370606D01*
X367394Y516000D02*
X375687D01*
X368000Y523394D02*
Y651583D01*
X366000Y521394D02*
Y651587D01*
X364000Y519394D02*
Y651591D01*
X362000Y517394D02*
Y651595D01*
X323700Y631800D02*
Y651674D01*
X284972Y631800D02*
X323700D01*
X360000Y515394D02*
Y651599D01*
X285903Y518000D02*
X362606D01*
X285919Y516000D02*
X360606D01*
X285935Y514000D02*
X358606D01*
X285853Y524000D02*
X368606D01*
X285870Y522000D02*
X366606D01*
X285886Y520000D02*
X364606D01*
X358000Y513394D02*
Y651603D01*
X374000Y505278D02*
Y522606D01*
X356000Y511394D02*
Y651607D01*
X329903Y485297D02*
X372603Y527997D01*
X354000Y509394D02*
Y651612D01*
X334000Y482606D02*
X375294Y523900D01*
X378000Y505600D02*
Y514014D01*
X376000Y505600D02*
Y515512D01*
X372000Y503394D02*
Y520606D01*
X370000Y501394D02*
Y518606D01*
X365394Y514000D02*
X378038D01*
X368000Y499394D02*
Y516606D01*
X366000Y497394D02*
Y514606D01*
X342000Y497394D02*
Y651636D01*
X340000Y495394D02*
Y651640D01*
X338000Y493394D02*
Y651644D01*
X336000Y491394D02*
Y651648D01*
X334000Y489394D02*
Y651652D01*
X332000Y487394D02*
Y651656D01*
X330000Y485394D02*
Y651661D01*
X352000Y507394D02*
Y651616D01*
X350000Y505394D02*
Y651620D01*
X348000Y503394D02*
Y651624D01*
X346000Y501394D02*
Y651628D01*
X286000Y506068D02*
Y631800D01*
X344000Y499394D02*
Y651632D01*
X408000Y492186D02*
Y500800D01*
X400000Y492424D02*
Y500800D01*
X406000Y490688D02*
Y500800D01*
X402000Y491663D02*
Y500800D01*
X398000Y492186D02*
Y500800D01*
X392000Y491663D02*
Y500800D01*
X396000Y490688D02*
Y500800D01*
X401433Y492000D02*
X407567D01*
X403416Y490000D02*
X405584D01*
X403852Y488000D02*
X405148D01*
X393852D02*
X395148D01*
X391433Y492000D02*
X397567D01*
X393416Y490000D02*
X395584D01*
X393313Y486000D02*
X395687D01*
X390000Y492424D02*
Y500800D01*
Y505600D02*
Y513776D01*
X388000Y492186D02*
Y500800D01*
X386000Y490688D02*
Y500800D01*
X380000Y492453D02*
Y500800D01*
X378000Y492453D02*
Y500800D01*
X382000Y492453D02*
Y500800D01*
X383484Y492000D02*
X387567D01*
X383853Y490000D02*
X385584D01*
X383853Y486000D02*
X385687D01*
X383853Y488000D02*
X385148D01*
X376547Y492453D02*
X382453D01*
X376000Y492341D02*
Y500606D01*
X403313Y486000D02*
X405687D01*
X404000Y480000D02*
Y500800D01*
X406000Y479782D02*
Y485512D01*
X402000Y480000D02*
Y484537D01*
X396000Y480000D02*
Y485512D01*
X398000Y480000D02*
Y484014D01*
X395294Y480000D02*
X405000D01*
X400000D02*
Y483776D01*
X395294Y480000D02*
X405000D01*
X391900Y484000D02*
X398038D01*
X391900Y483394D02*
X395294Y480000D01*
X394000Y481294D02*
Y500800D01*
X392000Y483294D02*
Y484537D01*
X383853Y485147D02*
Y491053D01*
X391900Y483394D02*
Y484469D01*
X387100Y482400D02*
Y484469D01*
X383255Y484000D02*
X387100D01*
X376547Y483747D02*
X382453D01*
X364000Y495394D02*
Y512606D01*
X362000Y493394D02*
Y510606D01*
X355394Y504000D02*
X372606D01*
X353394Y502000D02*
X370606D01*
X351394Y500000D02*
X368606D01*
X367394Y492000D02*
X375516D01*
X349394Y498000D02*
X366606D01*
X365394Y490000D02*
X375147D01*
X347394Y496000D02*
X364606D01*
X345394Y494000D02*
X362606D01*
X343394Y492000D02*
X360606D01*
X286001Y506000D02*
X350606D01*
X286017Y504000D02*
X348606D01*
X360000Y491394D02*
Y508606D01*
X286033Y502000D02*
X346606D01*
X285951Y512000D02*
X356606D01*
X285968Y510000D02*
X354606D01*
X285984Y508000D02*
X352606D01*
X286099Y494000D02*
X338606D01*
X286115Y492000D02*
X336606D01*
X286131Y490000D02*
X334606D01*
X286050Y500000D02*
X344606D01*
X286066Y498000D02*
X342606D01*
X286082Y496000D02*
X340606D01*
X363394Y488000D02*
X375147D01*
X358000Y489394D02*
Y506606D01*
X375147Y485147D02*
Y491053D01*
X356000Y487394D02*
Y504606D01*
X341394Y490000D02*
X358606D01*
X354000Y485394D02*
Y502606D01*
X352000Y483394D02*
Y500606D01*
X359394Y484000D02*
X375745D01*
X361394Y486000D02*
X375147D01*
X355394Y480000D02*
X388506D01*
X357394Y482000D02*
X387134D01*
X339394Y488000D02*
X356606D01*
X337394Y486000D02*
X354606D01*
X335394Y484000D02*
X352606D01*
X350000Y481394D02*
Y498606D01*
X348000Y479394D02*
Y496606D01*
X286148Y488000D02*
X332606D01*
X286164Y486000D02*
X330606D01*
X286180Y484000D02*
X329234D01*
X334000Y482000D02*
X350606D01*
X334000Y480000D02*
X348606D01*
X334000Y478000D02*
X346606D01*
X286213Y480000D02*
X329200D01*
X286197Y482000D02*
X329200D01*
X286229Y478000D02*
X329200D01*
X436094Y476000D02*
X446100D01*
X436000Y476094D02*
Y497600D01*
X438094Y474000D02*
X446100D01*
X438000Y474094D02*
Y497600D01*
X434094Y478000D02*
X446100D01*
X431900Y480194D02*
X438497Y473597D01*
X427803Y477503D02*
X434400Y470906D01*
X439198Y472000D02*
X446100D01*
X439200Y468000D02*
X446100D01*
X439200Y470000D02*
X446100D01*
X430949D02*
X434400D01*
X431400Y468000D02*
X434400D01*
X430000Y470994D02*
Y475306D01*
X428000Y472994D02*
Y477306D01*
X424994Y476000D02*
X429306D01*
X424000Y476994D02*
Y491606D01*
X426000Y474994D02*
Y485512D01*
X428994Y472000D02*
X433306D01*
X426994Y474000D02*
X431306D01*
X426303Y467318D02*
X426595Y467611D01*
X426000Y466948D02*
Y468206D01*
X439200Y464000D02*
X446100D01*
X439200Y466000D02*
X446100D01*
X440000Y453694D02*
Y495806D01*
X439200Y454494D02*
Y471900D01*
X431868Y464000D02*
X434400D01*
X431318Y466000D02*
X434400D01*
Y453500D02*
Y470906D01*
X439200Y460000D02*
X446100D01*
X439200Y462000D02*
X446100D01*
X439200Y458000D02*
X446100D01*
X439200Y454494D02*
X441435Y452259D01*
X429720Y460000D02*
X434400D01*
X431600Y462000D02*
X434400D01*
X439200Y456000D02*
X446100D01*
X431400Y466621D02*
Y468600D01*
X434000Y370000D02*
Y471306D01*
X432000Y370000D02*
Y473306D01*
X424000Y372900D02*
Y470206D01*
X422000Y372900D02*
Y472206D01*
X428000Y370594D02*
Y459600D01*
X426000Y372517D02*
Y460152D01*
X430000Y370000D02*
Y460152D01*
X411994Y474000D02*
X420206D01*
X414000Y471994D02*
Y480206D01*
X413765Y487229D02*
X430697Y470297D01*
X416000Y469994D02*
Y478206D01*
X409994Y476000D02*
X418206D01*
X406697Y479297D02*
X416697Y469297D01*
X410371Y483835D02*
X426595Y467611D01*
X417366Y468000D02*
X426206D01*
X417993Y466000D02*
X425007D01*
X417400Y466574D02*
Y467600D01*
X415994Y470000D02*
X424206D01*
X413994Y472000D02*
X422206D01*
X410000Y475994D02*
Y483776D01*
X408000Y477994D02*
Y484014D01*
X404006Y475200D02*
X412600Y466606D01*
X412000Y473994D02*
Y482206D01*
X387803Y480703D02*
X392603Y475903D01*
X380794Y468000D02*
X411206D01*
X394300Y475200D02*
X404006D01*
X382794Y466000D02*
X412007D01*
X377495Y472000D02*
X407206D01*
X376820Y474000D02*
X405206D01*
X378794Y470000D02*
X409206D01*
X418868Y464000D02*
X424132D01*
X418000Y465992D02*
Y476206D01*
X418600Y462000D02*
X424400D01*
X420000Y372900D02*
Y474206D01*
X412000Y372900D02*
Y461008D01*
X416720Y460000D02*
X426279D01*
X418000Y372900D02*
Y461008D01*
X416000Y372900D02*
Y459730D01*
X414000Y372900D02*
Y459730D01*
X390794Y458000D02*
X434400D01*
X388794Y460000D02*
X413279D01*
X392794Y456000D02*
X434400D01*
X404000Y416642D02*
Y475200D01*
X402000Y416695D02*
Y475200D01*
X406000Y415266D02*
Y473206D01*
X400000Y415508D02*
Y475200D01*
X396000Y452662D02*
Y475200D01*
X394000Y454794D02*
Y475219D01*
X398000Y415300D02*
Y475200D01*
X412000Y465992D02*
Y467206D01*
X410000Y372900D02*
Y469206D01*
X408000Y372900D02*
Y471206D01*
X386794Y462000D02*
X411400D01*
X384794Y464000D02*
X411132D01*
X377471Y471323D02*
X395597Y453197D01*
X439694Y454000D02*
X446237D01*
X435103Y451803D02*
X438119Y448787D01*
X440000Y370000D02*
Y445052D01*
X397642Y434000D02*
X461200D01*
X396300Y442000D02*
X457906D01*
X397695Y432000D02*
X461200D01*
X406642Y414000D02*
X446476D01*
X406695Y412000D02*
X446400D01*
X426594Y372000D02*
X524563D01*
X428594Y370000D02*
X456700D01*
X405266Y416000D02*
X472706D01*
X396508Y430000D02*
X461200D01*
X405508Y410000D02*
X446400D01*
X438000Y370000D02*
Y448906D01*
X436000Y370000D02*
Y450906D01*
X406000Y372900D02*
Y410534D01*
X404000Y372900D02*
Y409158D01*
X426397Y372197D02*
X428594Y370000D01*
X400000Y372900D02*
Y410292D01*
X398000Y372900D02*
Y410500D01*
X402000Y372900D02*
Y409105D01*
X428594Y370000D02*
X456700D01*
X438000Y363918D02*
Y365200D01*
X426000Y363918D02*
Y365811D01*
X423706Y368100D02*
X425903Y365903D01*
X424000Y363918D02*
Y367806D01*
X434000Y363918D02*
Y365200D01*
X432000Y363918D02*
Y365200D01*
X440000Y363918D02*
Y365200D01*
X436000Y363918D02*
Y365200D01*
X427600D02*
X455706D01*
X428000Y363918D02*
Y365200D01*
X430000Y363918D02*
Y365200D01*
X406000Y363918D02*
Y368100D01*
X404000Y363918D02*
Y368100D01*
X410000Y363918D02*
Y368100D01*
X408000Y363918D02*
Y368100D01*
X400000Y363918D02*
Y368100D01*
X398000Y363918D02*
Y368100D01*
X402000Y363918D02*
Y368100D01*
X420000Y363918D02*
Y368100D01*
X418000Y363918D02*
Y368100D01*
X422000Y363918D02*
Y368100D01*
X414000Y363918D02*
Y368100D01*
X412000Y363918D02*
Y368100D01*
X416000Y363918D02*
Y368100D01*
X396300Y440000D02*
X460110D01*
X396300Y444000D02*
X455906D01*
X396300Y436000D02*
X461200D01*
X396300Y438000D02*
X461200D01*
X396300Y448000D02*
X438121D01*
X396300Y450000D02*
X436906D01*
X396300Y446000D02*
X438926D01*
X387400Y426000D02*
X462706D01*
X387400Y428000D02*
X461253D01*
X388594Y418000D02*
X470706D01*
X387400Y424000D02*
X464706D01*
X387400Y420000D02*
X468706D01*
X387400Y422000D02*
X466706D01*
X286802Y408000D02*
X446400D01*
X396247Y452000D02*
X434927D01*
X396300Y435974D02*
Y451500D01*
X394794Y454000D02*
X434400D01*
X391294Y415300D02*
X399826D01*
X394000D02*
Y429001D01*
X396000Y415300D02*
Y429614D01*
X390594Y416000D02*
X400534D01*
X390300Y410500D02*
X399826D01*
X286785Y410000D02*
X400292D01*
X286883Y398000D02*
X483975D01*
X286867Y400000D02*
X448800D01*
X286900Y396000D02*
X448700D01*
X286916Y394000D02*
X446334D01*
X286834Y404000D02*
X446400D01*
X286818Y406000D02*
X446400D01*
X286851Y402000D02*
X446434D01*
X376120Y374000D02*
X492989D01*
X287063Y376000D02*
X491260D01*
X287162Y363918D02*
X456988D01*
X287161Y364000D02*
X456906D01*
X287031Y380000D02*
X491993D01*
X287014Y382000D02*
X446376D01*
X287047Y378000D02*
X491046D01*
X286998Y384000D02*
X446300D01*
X286981Y386000D02*
X446300D01*
X396000Y372900D02*
Y410500D01*
X394000Y372900D02*
Y410500D01*
X286949Y390000D02*
X446300D01*
X286932Y392000D02*
X446300D01*
X286965Y388000D02*
X446300D01*
X377474Y372900D02*
X424700D01*
X394000Y363918D02*
Y368100D01*
X396000Y363918D02*
Y368100D01*
X377393Y368000D02*
X423806D01*
X377474Y368100D02*
X423706D01*
X287145Y366000D02*
X425806D01*
X380000Y468794D02*
Y483747D01*
X376000Y474874D02*
Y483859D01*
X384000Y464794D02*
Y500800D01*
X382000Y466794D02*
Y483747D01*
X374000Y475679D02*
Y498606D01*
X342203Y473597D02*
X373503Y504897D01*
X346300Y470906D02*
X376194Y500800D01*
X353394Y478000D02*
X390506D01*
X378000Y470794D02*
Y483747D01*
X351394Y476000D02*
X392506D01*
X347754Y466000D02*
X376006D01*
X346807Y464000D02*
X378006D01*
X372000Y475357D02*
Y496606D01*
X346000Y477394D02*
Y494606D01*
X349394Y474000D02*
X370380D01*
X370000Y473300D02*
Y494606D01*
X344000Y475394D02*
Y492606D01*
X342000Y473366D02*
Y490606D01*
X347394Y472000D02*
X369705D01*
X346300Y469674D02*
Y470906D01*
X347540Y468000D02*
X372723D01*
X346300Y470000D02*
X370140D01*
X341500Y469674D02*
Y471900D01*
X388000Y460794D02*
Y480506D01*
X386000Y462794D02*
Y485512D01*
X392000Y456794D02*
Y476506D01*
X390000Y458794D02*
Y478506D01*
X370000Y438700D02*
Y470300D01*
X368000Y438700D02*
Y492606D01*
X372000Y438700D02*
Y468243D01*
X380000Y436894D02*
Y462006D01*
X378000Y438563D02*
Y464006D01*
X384000Y432894D02*
Y458006D01*
X382000Y434894D02*
Y460006D01*
X374077Y467929D02*
X391500Y450506D01*
X376000Y438700D02*
Y466006D01*
X374000Y438700D02*
Y467921D01*
X362000Y438700D02*
Y486606D01*
X360000Y438700D02*
Y484606D01*
X366000Y438700D02*
Y490606D01*
X364000Y438700D02*
Y488606D01*
X356000Y439794D02*
Y480606D01*
X354000Y441794D02*
Y478606D01*
X358000Y438700D02*
Y482606D01*
X350000Y445794D02*
Y474606D01*
X348000Y447794D02*
Y472606D01*
X352000Y443794D02*
Y476606D01*
X344000Y451794D02*
Y462701D01*
X342000Y453794D02*
Y463194D01*
X346000Y449794D02*
Y463314D01*
X340000Y466600D02*
Y488606D01*
X334000Y461794D02*
Y482606D01*
X336000Y459794D02*
Y484606D01*
X334000Y461794D02*
Y482606D01*
Y476000D02*
X344606D01*
X334000Y474000D02*
X342606D01*
X334000Y472000D02*
X341502D01*
X334000Y470000D02*
X341500D01*
X334000Y468000D02*
X340260D01*
X335794Y460000D02*
X382006D01*
X334000Y464000D02*
X340993D01*
X334000Y466000D02*
X340046D01*
X334000Y462000D02*
X380006D01*
X286311Y468000D02*
X329200D01*
X286295Y470000D02*
X329200D01*
Y460800D02*
Y483600D01*
X286328Y466000D02*
X329200D01*
X286262Y474000D02*
X329200D01*
X286246Y476000D02*
X329200D01*
X286279Y472000D02*
X329200D01*
X286393Y458000D02*
X331006D01*
X286360Y462000D02*
X329200D01*
X286344Y464000D02*
X329200D01*
X286377Y460000D02*
X329337D01*
X324000Y363918D02*
Y651673D01*
X318000Y363918D02*
Y631800D01*
X328000Y363918D02*
Y651665D01*
X326000Y363918D02*
Y651669D01*
X314000Y363918D02*
Y631800D01*
X312000Y363918D02*
Y631800D01*
X316000Y363918D02*
Y631800D01*
X340000Y455794D02*
Y466600D01*
X338000Y457794D02*
Y486606D01*
X334000Y461794D02*
X357094Y438700D01*
X330000Y363918D02*
Y459006D01*
X329903Y459103D02*
X354403Y434603D01*
X322000Y363918D02*
Y631800D01*
X320000Y363918D02*
Y631800D01*
X294000Y363918D02*
Y631800D01*
X292000Y363918D02*
Y631800D01*
X298000Y363918D02*
Y631800D01*
X296000Y363918D02*
Y631800D01*
X288000Y363918D02*
Y631800D01*
X284972D02*
X287162Y363918D01*
X290000D02*
Y631800D01*
X308000Y363918D02*
Y631800D01*
X306000Y363918D02*
Y631800D01*
X310000Y363918D02*
Y631800D01*
X302000Y363918D02*
Y631800D01*
X300000Y363918D02*
Y631800D01*
X304000Y363918D02*
Y631800D01*
X391500Y435974D02*
Y450506D01*
X390000Y432900D02*
Y452006D01*
Y416594D02*
Y432900D01*
X388000Y418594D02*
Y454006D01*
X380894Y436000D02*
X391500D01*
X378894Y438000D02*
X391500D01*
X382894Y434000D02*
X390158D01*
X392000Y415300D02*
Y429494D01*
X387400Y419194D02*
X391294Y415300D01*
X386874Y430000D02*
X391292D01*
X384894Y432000D02*
X390105D01*
X383303Y416503D02*
X388603Y411203D01*
X378897Y437997D02*
X386697Y430197D01*
X386000Y430894D02*
Y456006D01*
X376206Y433900D02*
X382600Y427506D01*
X374000Y374379D02*
Y433900D01*
X372000Y373574D02*
Y433900D01*
X387400Y419194D02*
Y428500D01*
X382600Y418200D02*
Y427506D01*
X376000Y374057D02*
Y433900D01*
X388000Y372900D02*
Y411806D01*
X386000Y372900D02*
Y413806D01*
X392000Y372900D02*
Y410500D01*
X390000Y372900D02*
Y410519D01*
X382000Y372900D02*
Y428106D01*
X380000Y372900D02*
Y430106D01*
X384000Y372900D02*
Y415806D01*
X388000Y363918D02*
Y368100D01*
X386000Y363918D02*
Y368100D01*
X392000Y363918D02*
Y368100D01*
X390000Y363918D02*
Y368100D01*
X382000Y363918D02*
Y368100D01*
X380000Y363918D02*
Y368100D01*
X384000Y363918D02*
Y368100D01*
X366000Y363918D02*
Y433900D01*
X364000Y363918D02*
Y433900D01*
X370000Y363918D02*
Y433900D01*
X368000Y363918D02*
Y433900D01*
X360000Y363918D02*
Y433900D01*
X358000Y363918D02*
Y433900D01*
X362000Y363918D02*
Y433900D01*
X378000Y363918D02*
Y368100D01*
Y372900D02*
Y432106D01*
X376000Y363918D02*
Y366943D01*
X372000Y363918D02*
Y367426D01*
X374000Y363918D02*
Y366621D01*
X345794Y450000D02*
X391500D01*
X343794Y452000D02*
X390006D01*
X349794Y446000D02*
X391500D01*
X347794Y448000D02*
X391500D01*
X339794Y456000D02*
X386006D01*
X337794Y458000D02*
X384006D01*
X341794Y454000D02*
X388006D01*
X355794Y440000D02*
X391500D01*
X357094Y438700D02*
X377200D01*
X356100Y433900D02*
X376206D01*
X353794Y442000D02*
X391500D01*
X351794Y444000D02*
X391500D01*
X286605Y432000D02*
X378106D01*
X286475Y448000D02*
X341006D01*
X286458Y450000D02*
X339006D01*
X286507Y444000D02*
X345006D01*
X286491Y446000D02*
X343006D01*
X286426Y454000D02*
X335006D01*
X286409Y456000D02*
X333006D01*
X286442Y452000D02*
X337006D01*
X286589Y434000D02*
X355414D01*
X286573Y436000D02*
X353006D01*
X286540Y440000D02*
X349006D01*
X286524Y442000D02*
X347006D01*
X286556Y438000D02*
X351006D01*
X286687Y422000D02*
X382600D01*
X286671Y424000D02*
X382600D01*
X286720Y418000D02*
X382608D01*
X286703Y420000D02*
X382600D01*
X286638Y428000D02*
X382106D01*
X286622Y430000D02*
X380106D01*
X286654Y426000D02*
X382600D01*
X287080Y374000D02*
X372679D01*
X287096Y372000D02*
X370800D01*
X287128Y368000D02*
X371407D01*
X287112Y370000D02*
X370532D01*
X286753Y414000D02*
X385806D01*
X286736Y416000D02*
X383806D01*
X286769Y412000D02*
X387806D01*
X340000Y363918D02*
Y449006D01*
X338000Y363918D02*
Y451006D01*
X344000Y363918D02*
Y445006D01*
X342000Y363918D02*
Y447006D01*
X334000Y363918D02*
Y455006D01*
X332000Y363918D02*
Y457006D01*
X336000Y363918D02*
Y453006D01*
X354000Y363918D02*
Y435006D01*
X352000Y363918D02*
Y437006D01*
X356000Y363918D02*
Y433902D01*
X348000Y363918D02*
Y441006D01*
X346000Y363918D02*
Y443006D01*
X350000Y363918D02*
Y439006D01*
M02*
